<?xml version="1.0" encoding="UTF-8" standalone="no"?>
<svg
   width="187mm"
   height="187mm"
   viewBox="0 0 187 187"
   version="1.1"
   xmlns="http://www.w3.org/2000/svg"
   style="shape-rendering:geometricPrecision; text-rendering:geometricPrecision; image-rendering:optimizeQuality; fill-rule:evenodd; clip-rule:evenodd;">
  
  <circle 
     cx="93.5" 
     cy="93.5" 
     r="93" 
     fill="#FF2400" 
     stroke="none"
     stroke-width="0"/>

  <path
     fill="#FFFFFF"
     stroke="none"
     stroke-width="0"
     d="M 52.665,38.775 C 54.31,38.718 55.874,39.196 57.097,40.559 c 1.824,2.033 2.254,5.871 2.936,8.455 1.341,5.075 2.847,10.202 4.793,15.081 1.085,2.72 4.028,11.062 7.938,9.911 3.32,-0.978 6.12,-3.904 8.267,-6.471 4.598,-5.496 8.116,-11.788 11.651,-17.992 3.093,-5.428 5.784,-10.818 12.89,-10.295 8.204,0.605 9.466,8.549 8.656,15.057 -0.876,7.037 -2.942,13.858 -3.818,20.902 -1.815,14.588 -2.21,29.284 -0.849,43.921 0.584,6.276 1.62,12.521 2.285,18.785 0.242,2.278 -0.354,5.62 -2.834,6.402 -9.43,2.972 -16.952,-6.083 -18.951,-14.075 -2.982,-11.926 -1.525,-24.714 -0.319,-36.777 0.55,-5.502 1.711,-11.149 1.014,-16.669 l -0.001,-0.001 c -2.439,1.162 -3.431,4.467 -4.857,6.615 -2.416,3.639 -5.505,7.095 -8.902,9.841 -1.471,1.189 -3.035,2.256 -4.762,3.041 -1.264,0.574 -2.601,0.978 -3.969,1.206 -9.763,1.627 -13.079,-10.784 -15.722,-17.792 -0.903,-2.394 -2.35,-4.719 -3.063,-7.144 -3.318,1.724 -3.752,9.627 -4.298,12.965 -1.97,12.032 -1.522,23.637 -1.522,35.719 0,4.588 0.666,10.407 -4.233,12.865 -1.371,0.688 -2.971,0.999 -4.498,0.849 -10.257,-1.013 -10.583,-13.126 -10.583,-20.857 0,-11.594 1.412,-23.224 3.33,-34.66 1.928,-11.497 4.864,-23.603 12.443,-32.808 1.42,-1.725 3.064,-3.393 4.864,-4.721 1.978,-1.459 4.941,-3.042 7.682,-3.137 z" />
</svg>
