<?xml version="1.0" encoding="UTF-8" standalone="no"?>
<!-- Created with Inkscape (http://www.inkscape.org/) -->

<svg
   width="36.704189mm"
   height="19.497374mm"
   viewBox="0 0 36.704189 19.497374"
   version="1.1"
   id="svg1"
   xml:space="preserve"
   xmlns="http://www.w3.org/2000/svg"
   xmlns:svg="http://www.w3.org/2000/svg"><defs
     id="defs1" /><g
     id="layer1"
     transform="translate(-111.69111,-172.99083)"><g
       id="buyuk_ticari"
       transform="matrix(1.6891488,0,0,1.4988415,-115.75693,-39.160849)"
       style="fill:#999999;stroke-width:0.628475"><path
         style="fill:#999999;fill-opacity:1;stroke-width:0.628475"
         d="m 137.33796,153.81952 c -0.75151,-0.95539 -0.68872,-1.58446 0.25204,-2.52522 0.64783,-0.64784 0.93783,-0.76612 1.52135,-0.62049 1.09501,0.27326 1.64699,0.90987 1.64699,1.89948 0,1.85661 -2.2853,2.68926 -3.42038,1.24623 z m 2.22407,-0.5256 c 0.5157,-0.5157 0.4383,-1.12826 -0.19276,-1.52567 -0.91675,-0.57733 -1.94907,0.72361 -1.24622,1.5705 0.41647,0.50182 0.90763,0.48652 1.43898,-0.0448 z m 10.51461,0.6229 c -1.54873,-1.64855 0.287,-4.02508 2.30361,-2.98225 1.69691,0.87751 1.12789,3.3607 -0.80854,3.52847 -0.67786,0.0587 -1.05683,-0.0797 -1.49507,-0.54622 z m 2.04669,-0.57622 c 0.17451,-0.21027 0.27839,-0.65676 0.23084,-0.99219 -0.0683,-0.48204 -0.25284,-0.60987 -0.88021,-0.60987 -0.62737,0 -0.81187,0.12783 -0.8802,0.60987 -0.15858,1.11861 0.8706,1.7862 1.52957,0.99219 z m -9.99043,-1.40363 0.0806,-1.25677 h 2.24896 2.24896 l 0.0806,1.25677 0.0806,1.25677 h -2.41025 -2.41024 z m -7.43688,-1.85208 c 0.0175,-2.16217 0.16032,-3.2567 0.59531,-4.56406 l 0.57221,-1.71979 2.4474,-0.0761 2.4474,-0.0761 v 3.41865 c 0,3.19614 0.0344,3.42766 0.52916,3.55703 0.40326,0.10546 0.52917,0.3609 0.52917,1.07358 0,1.19228 -0.432,1.482 -0.66024,0.44279 -0.21869,-0.99567 -1.28878,-1.85761 -2.30621,-1.85761 -0.92277,0 -2.32522,1.26438 -2.32522,2.09631 0,0.45164 -0.16495,0.54952 -0.92604,0.54952 h -0.92604 z m 4.47482,-1.10886 c 0,-0.13694 -0.11907,-0.32256 -0.26459,-0.41249 -0.14552,-0.0899 -0.26458,0.0221 -0.26458,0.24896 0,0.22687 0.11906,0.41249 0.26458,0.41249 0.14552,0 0.26459,-0.11203 0.26459,-0.24896 z m -0.0523,-2.85989 0.08,-1.38906 h -1.55945 -1.55944 l -0.32534,1.08587 c -0.17893,0.59723 -0.39123,1.25759 -0.47176,1.46747 -0.12098,0.31524 0.19282,0.36796 1.8048,0.30319 l 1.95124,-0.0784 z m 8.2544,5.6224 v -1.19063 h 1.31061 1.31061 l -0.37104,0.72761 c -0.20408,0.40018 -0.43293,0.93596 -0.50856,1.19062 -0.0917,0.3089 -0.40448,0.46302 -0.93957,0.46302 -0.77419,0 -0.80205,-0.0414 -0.80205,-1.19062 z m 6.52639,1.01423 c -0.097,-0.097 -0.17639,-0.38009 -0.17639,-0.62906 0,-0.24897 -0.17859,-0.60089 -0.39687,-0.78205 -0.64362,-0.53415 -0.45764,-0.83313 0.46302,-0.74437 0.80711,0.0778 0.86489,0.15193 0.94125,1.20739 0.0595,0.82292 -0.0173,1.12448 -0.28663,1.12448 -0.2024,0 -0.44737,-0.0794 -0.54438,-0.17639 z m -12.34722,-6.83507 v -4.36562 h 7.40833 7.40833 v 4.36562 4.36563 h -7.40833 -7.40833 z"
         id="path18" /><path
         style="fill:#999999;fill-opacity:1;stroke-width:0.628475"
         d="m 137.56855,154.02873 c -0.7437,-0.60222 -0.80333,-1.92924 -0.1206,-2.68365 0.68895,-0.76128 2.34869,-0.72953 2.89851,0.0555 1.35881,1.93998 -0.94088,4.11573 -2.77791,2.6282 z m 1.97736,-0.65404 c 0.56206,-0.41098 0.47579,-1.19558 -0.17664,-1.60644 -0.91675,-0.57733 -1.94907,0.72361 -1.24622,1.5705 0.39535,0.47636 0.80635,0.48675 1.42286,0.0359 z m 10.51896,0.52961 c -1.19074,-1.26749 -0.37064,-3.09181 1.38989,-3.09181 0.97029,0 2.00358,0.95517 2.00358,1.85209 0,0.25179 -0.24677,0.77151 -0.54837,1.15494 -0.71681,0.91128 -2.03183,0.95046 -2.8451,0.0848 z m 2.17526,-0.75146 c 0.2874,-0.41033 0.32607,-0.7069 0.13798,-1.05833 -0.34453,-0.64377 -1.47155,-0.62922 -1.82088,0.0235 -0.35422,0.66187 -0.35,0.69723 0.14188,1.18912 0.57079,0.57079 1.06801,0.521 1.54102,-0.1543 z m -10.15888,-1.14972 v -1.19063 h 2.38125 2.38125 v 1.19063 1.19062 h -2.38125 -2.38125 z m -7.21979,0.7618 c -0.1037,-0.1037 -0.18787,-1.27002 -0.18705,-2.59184 0.001,-1.74418 0.16727,-2.94752 0.60594,-4.38767 l 0.60445,-1.98437 2.43677,-0.0761 2.43677,-0.0761 v 3.45804 c 0,3.04463 0.0554,3.48074 0.46302,3.64794 0.37413,0.15346 0.43213,0.39309 0.30213,1.24825 -0.0885,0.58208 -0.17779,0.78128 -0.19844,0.44267 -0.0598,-0.97994 -1.42394,-2.16246 -2.49466,-2.16246 -1.02774,0 -2.21937,0.98058 -2.3558,1.93857 -0.0822,0.57709 -1.20208,0.95407 -1.61313,0.54302 z m 4.30938,-3.95242 c 0,-0.20969 -0.11907,-0.38126 -0.26459,-0.38126 -0.14552,0 -0.26458,0.24516 -0.26458,0.54479 0,0.29963 0.11906,0.47119 0.26458,0.38126 0.14552,-0.0899 0.26459,-0.33509 0.26459,-0.54479 z m -0.053,-2.69636 -0.0793,-1.52135 -1.39667,-0.0802 c -1.36039,-0.0782 -1.40588,-0.0575 -1.75072,0.79375 -0.19473,0.48069 -0.4317,1.20141 -0.5266,1.60159 l -0.17255,0.7276 h 2.00262 2.00262 z m 8.25503,5.75469 v -1.05834 h 1.17098 1.17097 l -0.44337,1.05565 c -0.36382,0.86624 -0.57392,1.05612 -1.17098,1.05833 -0.67293,0.002 -0.7276,-0.0768 -0.7276,-1.05564 z m 6.46091,0.61731 c -0.0847,-0.26676 -0.26078,-0.75291 -0.39135,-1.08033 -0.21486,-0.53884 -0.16111,-0.59532 0.56667,-0.59532 0.76463,0 0.80002,0.0476 0.72193,0.97174 -0.0889,1.05147 -0.64775,1.48994 -0.89725,0.70391 z m -12.10491,-2.40325 c -0.0654,-0.10914 -0.0993,-2.04391 -0.0752,-4.29948 l 0.0438,-4.10104 7.33564,-0.0703 7.33563,-0.0703 v 4.36981 4.36981 h -7.26042 c -3.99324,0 -7.31397,-0.0893 -7.37941,-0.19844 z"
         id="path17" /><path
         style="fill:#999999;fill-opacity:1;stroke-width:0.628475"
         d="m 137.58334,153.98749 c -0.67563,-0.67562 -0.69995,-2.14468 -0.0453,-2.73711 1.15076,-1.04142 3.22032,-0.16221 3.22032,1.36808 0,1.58025 -2.07085,2.47319 -3.175,1.36903 z m 2.22058,-0.85989 c 0.4256,-0.67893 -0.11569,-1.38906 -1.05879,-1.38906 -0.59727,0 -0.78387,0.13367 -0.85137,0.60987 -0.17747,1.25185 1.24908,1.83376 1.91016,0.77919 z m 10.23404,0.69192 c -0.30161,-0.38343 -0.54837,-0.90315 -0.54837,-1.15494 0,-0.25179 0.24676,-0.77152 0.54837,-1.15495 1.10945,-1.41044 3.24399,-0.62111 3.24399,1.19959 0,1.69429 -2.19396,2.4452 -3.24399,1.1103 z m 2.40662,-0.75023 c 0.36594,-0.80316 -0.0718,-1.46305 -0.97062,-1.46305 -0.32816,0 -0.74781,0.18212 -0.93254,0.40471 -0.51837,0.6246 0.0739,1.71196 0.93254,1.71196 0.45875,0 0.76755,-0.20795 0.97062,-0.65362 z m -10.18694,-0.0519 c -0.097,-0.097 -0.17639,-0.6328 -0.17639,-1.19063 v -1.01424 h 2.38125 2.38125 v 1.19063 1.19062 h -2.20486 c -1.21267,0 -2.28423,-0.0794 -2.38125,-0.17638 z m -7.39618,-0.25244 c -0.42949,-0.42948 -0.15193,-5.00971 0.42295,-6.97951 l 0.57913,-1.98437 2.4474,-0.0761 2.4474,-0.0761 v 3.5818 c 0,3.00744 0.0636,3.5818 0.39687,3.5818 0.28406,0 0.39393,0.28203 0.38652,0.99219 l -0.0104,0.99219 -0.35947,-0.82595 c -0.9775,-2.24596 -4.01553,-2.26058 -4.59155,-0.0221 -0.16244,0.63127 -0.38592,0.86805 -0.87429,0.92633 -0.36084,0.0431 -0.74091,-0.007 -0.8446,-0.11024 z m 4.30938,-3.80451 c 0,-0.29104 -0.11907,-0.52917 -0.26459,-0.52917 -0.14552,0 -0.26458,0.23813 -0.26458,0.52917 0,0.29104 0.11906,0.52917 0.26458,0.52917 0.14552,0 0.26459,-0.23813 0.26459,-0.52917 z m 0,-2.91042 v -1.5875 h -1.56873 -1.56872 l -0.41565,1.42979 c -0.22861,0.78638 -0.41565,1.50075 -0.41565,1.5875 0,0.0867 0.89297,0.15771 1.98437,0.15771 h 1.98438 z m 8.53281,6.70394 c -0.1819,-0.0734 -0.33073,-0.54025 -0.33073,-1.03744 0,-0.89668 0.01,-0.904 1.20563,-0.904 1.19302,0 1.20132,0.006 0.79375,0.58804 -0.22653,0.32342 -0.41188,0.79967 -0.41188,1.05834 0,0.45753 -0.53995,0.58431 -1.25677,0.29506 z m 5.95141,-0.87544 -0.41874,-1.066 h 0.78844 c 0.74665,0 0.78408,0.0515 0.70632,0.97174 -0.1126,1.3325 -0.57376,1.37289 -1.07602,0.0943 z m -11.83839,-5.96079 v -4.36562 h 7.27604 7.27604 v 4.36562 4.36563 h -7.27604 -7.27604 z"
         id="path16" /><path
         style="fill:#999999;fill-opacity:1;stroke-width:0.628475"
         d="m 137.58334,153.98749 c -1.12687,-1.12686 -0.30323,-3.175 1.27679,-3.175 0.88775,0 1.89821,0.96617 1.89821,1.81502 0,0.79598 -1.14132,1.88915 -1.97235,1.88915 -0.37042,0 -0.91161,-0.23812 -1.20265,-0.52917 z m 2.06375,-0.58208 c 0.49192,-0.49193 0.37507,-1.48515 -0.21167,-1.79917 -1.01725,-0.54441 -2.12472,0.58371 -1.57724,1.60667 0.30535,0.57057 1.30344,0.67797 1.78891,0.1925 z m 10.49193,0.46182 c -0.79339,-0.79339 -0.8212,-1.44209 -0.10106,-2.3576 1.09909,-1.39726 3.15579,-0.67409 3.15579,1.10964 0,1.73409 -1.82359,2.4791 -3.05473,1.24796 z m 2.36524,-0.73963 c 0.32163,-0.51368 0.0452,-1.15365 -0.70176,-1.62484 -0.50939,-0.32131 -1.51916,0.44303 -1.51916,1.14991 0,1.07165 1.62915,1.42003 2.22092,0.47493 z m -10.31462,-0.29761 c -0.0813,-0.21191 -0.1092,-0.72277 -0.062,-1.13525 l 0.0859,-0.74995 2.33084,-0.0767 2.33083,-0.0767 -0.0819,1.13501 -0.0819,1.13501 -2.18698,0.0769 c -1.72202,0.0606 -2.21842,-0.005 -2.33484,-0.30838 z M 134.9375,149.875 c 0,-1.8801 0.15096,-3.3033 0.46302,-4.36526 l 0.46302,-1.57568 2.4474,-3.7e-4 2.4474,-3.6e-4 v 3.43958 c 0,2.88102 0.0644,3.43958 0.39687,3.43958 0.28863,0 0.38705,0.27062 0.36085,0.99219 -0.0208,0.57257 -0.0834,0.74902 -0.14803,0.41722 -0.19595,-1.00597 -1.36929,-1.93857 -2.43898,-1.93857 -1.17783,0 -1.95916,0.51345 -2.39968,1.57696 -0.23909,0.57721 -0.51084,0.80429 -0.96251,0.80429 -0.62296,0 -0.62936,-0.0284 -0.62936,-2.78958 z m 4.23334,-0.91459 c 0,-0.29104 -0.11907,-0.52917 -0.26459,-0.52917 -0.14552,0 -0.26458,0.23813 -0.26458,0.52917 0,0.29104 0.11906,0.52917 0.26458,0.52917 0.14552,0 0.26459,-0.23813 0.26459,-0.52917 z m 0,-2.91042 v -1.5875 h -1.57725 -1.57725 l -0.40713,1.37094 c -0.22392,0.75402 -0.40712,1.46839 -0.40712,1.5875 0,0.11911 0.89297,0.21656 1.98437,0.21656 h 1.98438 z m 8.20208,5.68855 c 0,-0.91718 0.0111,-0.92605 1.15716,-0.92605 h 1.15717 l -0.42956,0.91743 c -0.33497,0.7154 -0.58979,0.91932 -1.15717,0.92604 -0.6568,0.008 -0.7276,-0.0815 -0.7276,-0.91742 z m 6.3051,0 c -0.41537,-0.9164 -0.41319,-0.92605 0.20946,-0.92605 0.54269,0 0.62919,0.12732 0.62919,0.92605 0,0.50932 -0.0943,0.92604 -0.20946,0.92604 -0.1152,0 -0.39834,-0.41672 -0.62919,-0.92604 z m -11.86135,-5.81658 v -4.36988 h 7.2826 7.28259 l -0.0727,4.29948 -0.0727,4.29948 -7.20989,0.0704 -7.2099,0.0704 z"
         id="path15" /><path
         style="fill:#999999;fill-opacity:1;stroke-width:0.628475"
         d="m 137.77032,153.98325 c -0.95587,-0.75189 -0.96404,-1.87903 -0.019,-2.62239 0.9155,-0.72013 1.56421,-0.69232 2.35759,0.10107 0.76606,0.76605 0.82482,1.46593 0.18642,2.22039 -0.71406,0.84387 -1.6873,0.95986 -2.525,0.30093 z m 2.17762,-0.85565 c 0.26952,-0.6949 -0.19754,-1.60495 -0.89455,-1.74298 -0.55613,-0.11014 -1.47005,0.6782 -1.47005,1.26805 0,1.14302 1.95333,1.53535 2.3646,0.47493 z m 10.59998,1.05464 c -0.95136,-0.48817 -1.0893,-2.33898 -0.21971,-2.94806 1.26244,-0.88425 2.87423,-0.11464 2.85713,1.36425 -0.0166,1.43828 -1.35488,2.24191 -2.63742,1.58381 z m 1.79917,-0.77683 c 0.46999,-0.46999 0.38636,-1.12567 -0.21274,-1.66785 -0.43813,-0.39649 -0.64497,-0.42759 -1.19063,-0.17897 -1.14362,0.52107 -0.74104,2.16432 0.53024,2.16432 0.3056,0 0.6985,-0.14287 0.87313,-0.3175 z m -10.00125,-1.40229 v -1.21203 l 2.18281,0.0769 2.18281,0.0769 v 1.05833 1.05833 l -2.18281,0.0768 -2.18281,0.0769 z m -7.37231,-2.3151 c 0.0198,-1.63711 0.0876,-2.70868 0.1507,-2.38125 0.10664,0.55366 0.25221,0.59531 2.08063,0.59531 h 1.96598 v -1.74237 -1.74237 l -1.72041,0.0887 c -1.0674,0.0551 -1.68695,-0.0117 -1.63225,-0.17586 0.0485,-0.14552 1.17987,-0.29881 2.51416,-0.34065 l 2.426,-0.0761 v 3.44951 c 0,2.88985 0.0644,3.44951 0.39687,3.44951 0.27349,0 0.39366,0.26733 0.38652,0.8599 l -0.0104,0.8599 -0.37791,-0.8698 c -0.25421,-0.5851 -0.70549,-1.00693 -1.3787,-1.28873 -0.93412,-0.39101 -1.0625,-0.38595 -1.92684,0.0761 -0.52139,0.27869 -1.09143,0.87073 -1.30452,1.35487 -0.27034,0.61421 -0.55382,0.8599 -0.99219,0.8599 -0.60766,0 -0.61335,-0.0293 -0.57768,-2.97656 z m 4.19731,-0.72761 c 0,-0.29104 -0.10633,-0.52917 -0.23628,-0.52917 -0.2974,0 -0.57482,0.68822 -0.36285,0.90018 0.31849,0.31849 0.59913,0.14471 0.59913,-0.37101 z m 8.24787,2.77813 c -0.0613,-0.91002 -0.0446,-0.92605 0.96478,-0.92605 h 1.02714 l -0.28985,0.92605 c -0.23179,0.74057 -0.42502,0.92604 -0.96477,0.92604 -0.58309,0 -0.68342,-0.12602 -0.7373,-0.92604 z m 6.27153,-0.009 c -0.426,-0.90982 -0.42436,-0.91743 0.19843,-0.91743 0.54133,0 0.628,0.12782 0.628,0.92605 0,1.16841 -0.27667,1.16552 -0.82643,-0.009 z m -11.87357,-5.81222 v -4.10104 h 7.27604 7.27604 v 4.10104 4.10104 h -7.27604 -7.27604 z m -6.32911,-0.55121 c 0.0127,-0.30823 0.0754,-0.37092 0.15985,-0.15985 0.0764,0.19099 0.067,0.41919 -0.0209,0.50711 -0.0879,0.0879 -0.15045,-0.0684 -0.13896,-0.34726 z"
         id="path14" /><path
         style="fill:#999999;fill-opacity:1;stroke-width:0.628475"
         d="m 137.54959,153.78906 c -0.32911,-0.41965 -0.31975,-0.42901 0.0999,-0.0999 0.25466,0.19972 0.46302,0.40808 0.46302,0.46302 0,0.21776 -0.21727,0.0776 -0.56291,-0.36312 z m -0.45364,-1.12448 c 0,-0.3638 0.0601,-0.51263 0.13345,-0.33073 0.0734,0.1819 0.0734,0.47956 0,0.66146 -0.0734,0.1819 -0.13345,0.0331 -0.13345,-0.33073 z m 15.85411,0.11024 c 0.0127,-0.30822 0.0754,-0.37092 0.15985,-0.15985 0.0764,0.19099 0.067,0.4192 -0.0209,0.50712 -0.0879,0.0879 -0.15045,-0.0683 -0.13896,-0.34727 z m -12.34088,-2.04315 c -0.0729,-0.18997 -0.0983,-1.82708 -0.0565,-3.63802 l 0.0761,-3.29261 0.13094,3.63846 c 0.072,2.00116 0.0974,3.63827 0.0565,3.63802 -0.041,-2.4e-4 -0.1341,-0.15587 -0.207,-0.34585 z m 2.72884,0.15168 c 0.61847,-0.0557 1.6305,-0.0557 2.24896,0 0.61847,0.0557 0.11245,0.10128 -1.12448,0.10128 -1.23692,0 -1.74294,-0.0456 -1.12448,-0.10128 z m -4.10046,-4.43648 c 0.003,-0.58208 0.0571,-0.78905 0.12041,-0.45994 0.0633,0.32912 0.0609,0.80537 -0.005,1.05834 -0.0662,0.25296 -0.11801,-0.0163 -0.11507,-0.5984 z m -3.24172,-2.1898 c 0,-0.11299 0.50601,-0.16622 1.12448,-0.1183 1.85342,0.14362 2.01165,0.26046 0.39687,0.29303 -0.83674,0.0169 -1.52135,-0.0618 -1.52135,-0.17473 z"
         id="path13" /></g></g></svg>
