<?xml version="1.0" encoding="UTF-8" standalone="no"?>
<svg
   width="187.01711mm"
   height="187.8102mm"
   viewBox="0 0 187.0171 187.81019"
   version="1.1"
   id="svg1"
   xmlns="http://www.w3.org/2000/svg"
   xmlns:svg="http://www.w3.org/2000/svg">
  <defs
     id="defs1">
    <linearGradient
       id="swatch1">
      <stop
         style="stop-color:#ff0000;stop-opacity:1;"
         offset="0"
         id="stop1" />
    </linearGradient>
  </defs>
  <!-- Kırmızı yuvarlak arka plan -->
  <circle
     id="circle-bg"
     cx="93.5"
     cy="93.9"
     r="93"
     style="fill:#d40000" />
  <!-- Beyaz M harfi -->
  <path
     id="m-letter"
     style="fill:#ffffff"
     d="M 52.665468,38.775837 c 1.64453,-0.0571 3.20852,0.421121 4.43177,1.783871 1.824,2.033 2.25426,5.871298 2.93626,8.455298 1.341,5.075 2.84699,10.201733 4.79299,15.080733 1.085,2.72 4.02801,11.062023 7.93801,9.911023 3.32,-0.978 6.11968,-3.903923 8.26668,-6.470923 4.598,-5.496 8.11597,-11.788184 11.65097,-17.992184 3.093,-5.428 5.78417,-10.817978 12.890172,-10.294978 8.204,0.605 9.46632,8.548962 8.65632,15.056962 -0.876,7.037 -2.94237,13.858083 -3.81837,20.902083 -1.815,14.588 -2.21005,29.284358 -0.84905,43.921358 0.584,6.276 1.62014,12.5209 2.28514,18.7849 0.242,2.278 -0.35394,5.61967 -2.83394,6.40167 -9.430002,2.972 -16.951782,-6.08259 -18.950782,-14.07459 -2.982,-11.926 -1.52536,-24.71408 -0.31936,-36.777088 0.55,-5.502 1.71089,-11.149267 1.01389,-16.669267 l -5.2e-4,-10e-4 c -2.439,1.162 -3.43106,4.4671 -4.85706,6.6151 -2.416,3.639 -5.5053,7.09526 -8.9023,9.84126 -1.471,1.189 -3.03499,2.255641 -4.76199,3.040641 -1.264,0.574 -2.60075,0.978128 -3.96875,1.206128 -9.763,1.627 -13.07903,-10.783679 -15.72203,-17.791679 -0.903,-2.394 -2.34987,-4.719267 -3.06287,-7.144267 -3.318,1.724 -3.75244,9.6271 -4.29844,12.9651 -1.97,12.032 -1.52187,23.636752 -1.52187,35.718752 0,4.588 0.66618,10.40736 -4.23282,12.86536 -1.371,0.688 -2.97092,0.99905 -4.49792,0.84905 -10.257,-1.013 -10.58333,-13.12613 -10.58333,-20.85713 0,-11.594 1.41203,-23.223898 3.33003,-34.659898 1.928,-11.497 4.86417,-23.603333 12.44317,-32.808333 1.42,-1.725 3.06378,-3.392643 4.86378,-4.720643 1.9775,-1.45875 4.94134,-3.0421 7.68222,-3.137276 z" />
</svg>
