<?xml version="1.0" encoding="UTF-8" standalone="no"?>
<svg
   width="192"
   height="192"
   viewBox="0 0 192 192"
   version="1.1"
   id="icon-192-maskable"
   xmlns="http://www.w3.org/2000/svg">
  <!-- K1rm1z1 kare arka plan (maskable için safe zone) -->
  <rect width="192" height="192" fill="#d40000"/>
  <!-- Beyaz M harfi - merkezde ve biraz daha küçük -->
  <g transform="translate(96,96)">
    <circle cx="0" cy="0" r="70" style="fill:#d40000" />
    <path
       style="fill:#ffffff"
       d="M -41.334532,-57.224163 c 1.20030,-0.0417 2.34021,0.30748 3.23003,1.30148 1.33067,1.48400 1.64478,4.28594 2.14178,6.17294 0.97867,3.70533 2.07786,7.44793 3.49786,11.00793 0.79133,1.98533 2.93867,8.07949 5.79200,7.23949 2.42133,-0.714 4.46643,-2.84694 6.03043,-4.72094 3.35467,-4.01200 5.92211,-8.60283 8.50211,-13.13083 2.25733,-3.96267 4.22211,-7.89798 9.40078,-7.51598 5.98933,0.442 6.90478,6.24398 6.31478,10.99198 -0.63933,5.13733 -2.14778,10.11361 -2.78444,15.27861 -1.32467,10.64933 -1.61337,21.35758 -0.62004,32.07758 0.42667,4.58133 1.18277,9.13593 1.66877,13.72793 0.17667,1.66267 -0.25830,4.10118 -2.06697,4.67318 -6.882667,2.17067 -12.378454,-4.43989 -13.843454,-10.27189 -2.176,-8.71533 -1.11292,-18.05698 -0.23292,-26.86498 0.401,-4.019 1.24998,-8.13826 0.74198,-12.18226 l -4e-4,-0.001 c -1.78133,0.84733 -2.50258,3.25918 -3.54258,4.82918 -1.76267,2.65733 -4.01918,5.17345 -6.49918,7.18345 -1.07333,0.86733 -2.21565,1.64600 -3.47999,2.21866 -0.92267,0.418 -1.89788,0.71398 -2.89788,0.93198 -7.127999,1.187 -9.546686,-7.87149 -11.483353,-13.00149 -0.659,-1.75067 -1.71791,-3.44326 -2.23591,-5.21659 -2.422,1.25733 -2.73980,7.02318 -3.13780,9.46318 -1.43667,8.78667 -1.11137,17.25418 -1.11137,26.06418 0,3.34933 0.486635,7.59650 -3.089999,9.38650 -1.00067,0.502 -2.168328,0.72938 -3.281995,0.61938 -7.48733,-0.739 -7.722127,-9.58555 -7.722127,-15.22555 0,-8.46133 1.03070,-16.95429 2.43070,-25.29929 1.40733,-8.39467 3.55211,-17.23363 9.08078,-23.95963 1.036,-1.258 2.23605,-2.47730 3.55205,-3.44530 1.442667,-1.064 3.607986,-2.22018 5.607986,-2.28985 z" />
  </g>
</svg>
