<?xml version="1.0" encoding="UTF-8" standalone="no"?>
<svg
   width="512"
   height="512"
   viewBox="0 0 512 512"
   version="1.1"
   id="icon-512"
   xmlns="http://www.w3.org/2000/svg">
  <!-- K1rm1z1 yuvarlak arka plan -->
  <circle
     id="circle-bg"
     cx="256"
     cy="256"
     r="256"
     style="fill:#d40000" />
  <!-- Beyaz M harfi -->
  <path
     id="m-letter"
     style="fill:#ffffff"
     d="M 140.66547,106.27584 c 4.38787,-0.1523 8.55605,1.12299 11.82472,4.75699 4.864,5.4213 6.01137,15.65679 7.83337,22.54879 3.57733,13.53333 7.59197,27.20461 12.78131,40.21528 2.89333,7.25333 10.74136,29.49872 21.16803,26.42936 8.85333,-2.608 16.31915,-10.41045 22.04448,-17.25845 12.26133,-14.65600 21.64259,-31.43515 31.06925,-47.97915 8.248,-14.47467 15.42445,-28.85128 34.37379,-27.45328 21.87733,1.61333 25.24355,22.79723 23.08355,40.15189 -2.336,18.76533 -7.84632,36.95488 -10.18099,55.74219 -4.84,38.90133 -5.89347,78.09161 -2.26614,117.12362 1.55733,16.73600 4.32037,33.38907 6.09370,50.09307 0.64533,6.07467 -0.94384,14.98576 -7.55718,17.07110 -25.14667,7.92533 -45.20475,-16.22024 -50.53542,-37.53024 -7.952,-31.80267 -4.06763,-65.90421 -0.85163,-98.07221 1.46667,-14.67200 4.56237,-29.73141 2.70370,-44.45141 l -10e-4,-0.003 c -6.504,3.09867 -9.14949,11.91227 -12.95216,17.64027 -6.44267,9.70400 -14.68141,18.92069 -23.73949,26.24336 -3.92267,3.17067 -8.09331,6.01504 -12.69864,8.10837 -3.37067,1.53067 -6.93533,2.60834 -10.58333,3.21634 -26.03467,4.33867 -34.87742,-28.75648 -41.92542,-47.44481 -2.408,-6.38400 -6.26632,-12.58472 -8.16765,-19.05139 -8.848,4.59733 -10.00651,25.67227 -11.46251,34.57227 -5.25333,32.08533 -4.05832,63.03134 -4.05832,95.25334 0,12.23467 1.77651,27.75296 -11.28749,34.30829 -3.656,1.83467 -7.92245,2.66413 -11.99445,2.26413 -27.352,-2.70133 -28.22219,-35.00304 -28.22219,-55.61971 0,-30.91733 3.76541,-61.93043 8.88008,-92.42397 5.14133,-30.65867 12.97112,-62.94222 33.18179,-87.48888 3.78667,-4.60000 8.17008,-9.04704 12.97008,-12.58837 5.27333,-3.89000 13.17691,-8.11227 20.48592,-8.36607 z" />
</svg>
