<?xml version="1.0" encoding="UTF-8" standalone="no"?>
<svg
   width="512"
   height="512"
   viewBox="0 0 512 512"
   version="1.1"
   id="icon-512-maskable"
   xmlns="http://www.w3.org/2000/svg">
  <!-- K1rm1z1 kare arka plan (maskable için safe zone) -->
  <rect width="512" height="512" fill="#d40000"/>
  <!-- Beyaz M harfi - merkezde -->
  <g transform="translate(256,256)">
    <circle cx="0" cy="0" r="186" style="fill:#d40000" />
    <path
       style="fill:#ffffff"
       d="M -115.33453,-152.72416 c 3.20080,-0.1112 6.24056,0.81995 8.61341,3.47395 3.54932,3.95867 4.38608,11.42952 5.71408,16.46552 2.60978,9.88267 5.54095,19.85981 9.32775,29.35775 2.11118,5.29600 7.83644,21.54652 15.44534,19.30652 6.45867,-1.904 11.90962,-7.59318 16.08162,-12.59318 8.94798,-10.70400 15.79122,-22.93949 22.68522,-35.01149 6.01867,-10.56267 11.25522,-21.05395 25.06850,-20.03795 15.97067,1.17867 18.41275,16.65065 16.84275,29.31065 -1.70533,13.70133 -5.72734,26.96961 -7.42667,40.75161 -3.53333,28.39467 -4.30004,57.03425 -1.65338,85.53825 1.13867,12.21867 3.15410,24.36927 4.45010,36.60527 0.47134,4.43467 -0.68889,10.93318 -5.51022,12.46851 -18.37600,5.78667 -33.02678,-11.86656 -35.96278,-27.40456 -5.80533,-21.98934 -2.97218,-48.18165 -0.62218,-71.81165 1.06933,-10.72000 3.33331,-22.72960 1.98131,-33.44960 l -0.001,-0.002 c -4.75467,2.26267 -6.67355,8.69785 -9.45622,12.88685 -4.70133,7.08800 -10.71821,13.80360 -17.33354,19.17493 -2.86267,2.31467 -5.90975,4.39120 -9.27308,5.92493 -2.46133,1.11467 -5.06354,1.90665 -7.73354,2.48665 -19.01867,3.16667 -25.45149,-21.00498 -30.62149,-34.67031 -1.75733,-4.67200 -4.57982,-9.18240 -5.96449,-13.92907 -6.46933,3.35467 -7.30954,18.74118 -8.36554,25.30118 -3.83467,23.43467 -2.96498,45.99478 -2.96498,69.55478 0,8.93333 1.29635,20.25216 -8.239983,25.03349 -2.67067,1.33867 -5.783988,1.94671 -8.799988,1.64671 -19.97333,-1.97067 -20.59232,-25.58738 -20.59232,-40.61338 0,-22.58667 2.74918,-45.23893 6.48518,-67.44493 3.75467,-22.40267 9.47288,-46.00095 24.24155,-63.98762 2.76267,-3.354 5.96282,-6.61290 9.47282,-9.19490 3.84667,-2.838 9.62130,-5.92152 14.95130,-6.11219 z" />
  </g>
</svg>
