<svg xmlns="http://www.w3.org/2000/svg" viewBox="0 0 282.84 419.73">
  <g id="araba-govde" transform="translate(-5.82 -19.47)" style="stroke-width:1.3">
    <path id="on-tampon" fill="#c0c0c0" d="m138.79 42.82c15.01-.88 93.54-.15 57.57-6.15-35.45-5.92.31 6.56 16.84 2.81 2.86-.65-1.04 7.77 1.34-5.75 3.43-19.47-62.13-6.79-24.38-9.89 29.34-2.41-39.74-6.88-54.86-2.55-2.96.85-37.23.49-49.53 4.95-19.49.96-5.52 19.23-11.57 10.2 6.34 14.18 30.37 6.85 30.37 6.85z"/>
    
    <path id="kaput" fill="#c0c0c0" d="m76.9 123.92c-.93-6.06-1.07-48.87-.18-53.67 1.08-5.79 3.43-8.33 11.37-12.29 24.8-12.36 79.97-14.53 108-4.24 17.21 6.32 20.42 11.13 20.46 30.71.01 6.94-.48 19.63-1.1 28.21-.96 13.3-1.44 15.6-3.28 15.6-1.18 0-3.06-1.05-4.18-2.33-1.11-1.28-4.78-3.76-8.14-5.52-3.36-1.76-8.15-4.27-10.64-5.58-7.66-4.04-18.78-5.6-39.96-5.63-22.36-.03-37.66 1.9-46.22 5.86-3.07 1.42-6.3 2.58-7.17 2.58-.88 0-4.91 2.69-8.96 5.97-4.05 3.29-7.76 5.97-8.25 5.97-.49 0-1.28-2.54-1.75-5.64z"/>
    
    <path id="sag-on-camurluk" fill="#c0c0c0" d="m234.68 115.14c-2.4-14.07-1.86-51.6.77-53.85.74-.63 4.3-2.48 7.93-4.12 3.62-1.64 8.29-4.61 10.38-6.62 2.08-2 4.69-3.38 5.79-3.05 2.43.71 15.58 13.75 15.46 15.34-.04.62-2.78 1.89-6.08 2.82-13.55 3.82-22.68 16.15-20.03 27.02 1.93 7.92 11.53 16.2 20.25 17.48 4.91.72 5.79 1.32 5.61 3.83-.21 2.92-.55 3-16.08 3.98-23.04 1.46-23.27 1.43-24-2.83z"/>
    
    <path id="sol-on-camurluk" fill="#c0c0c0" d="m30.56 118.24c-3.21-.42-9.17-.82-13.25-.88-7.1-.11-7.39-.25-6.81-3.24.53-2.72 1.86-3.37 10.33-5.08 12.84-2.58 15.74-4.07 19.61-10.05 3.96-6.13 2.84-13.78-2.86-19.52-4.03-4.07-12.43-8.22-16.62-8.22-5.61 0-6.62-2.22-2.65-5.87 4.87-4.46 14.99-11.13 16.9-11.13.77 0 4.19 2.03 7.6 4.52 3.4 2.48 8.39 5.03 11.07 5.66l4.88 1.14v16.68c0 16.5-2.67 31.86-6.13 35.25-1.91 1.87-11.09 2.19-22.06.75z"/>
    
    <path id="sag-on-kapi" fill="#c0c0c0" d="m264.36 219.61c-1.69-.2-7.3-1.13-12.48-2.08l-9.41-1.72-1.48-8.1c-1.98-10.86-1.06-62.94 1.14-64.73 1.94-1.58 36.2-1.74 38.12-.17.71.58 1.82 5.3 2.46 10.5.64 5.19 1.79 13.44 2.56 18.32.78 4.95 1.21 17.25.98 27.79-.34 15.46-.75 19.08-2.26 19.86-1.76.91-13.15 1.11-19.62.34z"/>
    
    <path id="sol-on-kapi" fill="#c0c0c0" d="m10.18 218.18c-1.65-1.48-2.12-2.83-1.66-4.75.35-1.48 1.15-15.06 1.78-30.18 1.17-28.49 2.26-38.47 4.39-40.38 1.98-1.78 32.14-1.51 33.38.29 2.44 3.54 2.9 63.49.55 70.77-.58 1.81-2.43 2.54-10.71 4.25-13.47 2.78-24.63 2.79-27.73 0z"/>
    
    <path id="sag-arka-kapi" fill="#c0c0c0" d="m239.49 313.24c-1.37-3.59-2.16-62.61-.97-71.93l.99-7.71 17.28.2c9.5.11 18.95.64 20.98 1.17 3.43.9 3.82 1.54 5.24 8.61.85 4.2 2.44 11.32 3.55 15.82 2.76 11.19 2.8 23.85.1 28.39-3.43 5.75-9.85 10.46-22.06 16.18-6.33 2.96-12.83 6.31-14.45 7.43-1.62 1.13-3.87 2.05-5 2.05-1.13 0-2.65.53-3.37 1.17-.93.83-1.6.43-2.29-1.38z"/>
    
    <path id="sol-arka-kapi" fill="#c0c0c0" d="m43.72 315.21c-5.28-2.43-28.55-17.57-34.04-22.14l-3.59-3-.24-12.48c-.13-6.87.1-13.02.51-13.68.41-.66 1-5.66 1.31-11.13.61-10.99 1.68-13.89 5.65-15.37 1.47-.55 9.85-1.33 18.62-1.73l15.95-.74.66 4.77c1.65 12.02 2.11 55.75.7 66.23-.8 5.89-1.74 10.67-2.1 10.62-.36-.05-1.9-.66-3.42-1.36z"/>
    
    <path id="tavan" fill="#c0c0c0" d="m200.91 128.47c-.02 0-.04 0-.06.01-2.78.93-8.77 22.83-10.34 37.77-.37 3.58-1.14 7.06-1.69 7.75-1.35 1.67-5.3 1.58-11.52-.27-14.28-4.24-49.45-4.15-65.33.17-3.07.83-6.89 1.36-8.5 1.18-2.82-.32-2.96-.59-4.04-7.83-3.01-20.15-4.41-26.07-7.97-33.75-1.61-3.48-2.87-4.1-3.74-1.85-.3.77-3.61 2.84-7.36 4.59-11.71 5.47-13.61 6.46-16 8.33-5.05 3.97-2.15 4.4 6.04.92 3.5-1.49 4.12-1.5 6.54-.11 2.01 1.16 3.12 1.27 4.46.45 1.47-.89 2.27-.51 4.58 2.22 4.01 4.74 8.71 14.88 10.51 22.67 2.3 9.93 3.76 33.9 3.11 51.37-.31 8.44-.82 15.75-1.13 16.25-.78 1.27-5.15 1.13-7.76-.24-4.13-2.17-.49-101.48-11.86-89.71-1.07 1.11-2.07 97.75-1.91 125.16l2.69 44.7 3.46 2.95c2.03 1.74 4.64 2.97 6.32 2.99 1.58.02 7.15-2.03 12.38-4.55l9.51-4.59 29.62.33c17.15.19 32.36.83 36.12 1.52 9.11 1.68 16.71 3.92 19.53 5.77 9.35 6.13 14.04-3.89 15.42-32.93.68-14.41-.32-66.2-1.3-67.19-.22-.22 2.09-79.89-4.14-79.83-2.37.02-1.42 89.47-3.81 91.97-4.35 4.54-7.57 5.66-9.45 3.29-1.27-1.6-3.25-22.78-3.26-34.91-.01-12.21 1.73-29.05 3.65-35.34 3.53-11.58 11.61-23.39 15.09-22.05.74.29 2.12.03 3.07-.56 1.3-.81 3.18-.56 7.68 1.02 9.21 3.24 11.85 2.63 7.27-1.67-2-1.88-5.7-3.14-13.75-4.69-1.52-.29-4.2-2.67-6.85-6.07-2.32-2.98-4.65-5.29-5.3-5.26zm1.76 115.9c.65.02 1.33.17 2.12.45l2.78.97.29 18.98c.39 25.63-1.27 34.68-7.52 40.93-2.65 2.65-6.64 3.37-7.85 1.41-1.64-2.65-2.4-18.82-1.79-38.14l.66-20.77 2.61-.62c1.43-.34 3.83-1.32 5.33-2.18 1.28-.74 2.3-1.07 3.38-1.04zm-104.17 12.36c5.6 1.63 0 0 1.1 4.46v0l.18 26.68c.21 30.99-.39 19.54-2.01 20.57-1.69 1.07-1.81 1.04-5.43-1.16-9.6-5.85-13.12-24.28-10.41-54.53.59-6.64 1.17-7.34 5.96-7.34 6.46 0 13.91 2.8 10.61 11.32z"/>
    
    <path id="sag-arka-camurluk" fill="#c0c0c0" d="m258.37 404.46c-9-2.23-15.16-5.66-22.07-12.29-7.1-6.81-12.81-16.66-14.35-24.76-1.93-10.14-2.53-32.71-.94-35.45 1.43-2.45 1.83-2.49 21.89-2.11 18.59.36 20.73.61 23.73 2.78 3.63 2.62 3.27 3.81-1.14 3.81-4.64 0-13.33 8.84-15.6 15.86-2.38 7.37-2.38 8.32.03 15.18 2.49 7.08 8.55 12.25 16.6 14.15l6.1 1.44-.77 8.49c-1.2 13.3-1.65 14.71-4.7 14.55-1.46-.08-5.41-.82-8.78-1.66z"/>
    
    <path id="sol-arka-camurluk" fill="#c0c0c0" d="m25.34 401.86c-.73-2.41-1.42-7.13-1.55-10.48l-.23-6.1 5.11-1.22c11.65-2.78 16.79-8.94 16.79-20.1 0-6-.5-7.98-2.86-11.42-2.42-3.52-9.93-9.04-14.42-10.6-.75-.26-.23-1.41 1.3-2.88 2.46-2.35 3.25-2.45 22.08-2.78l19.52-.34.81 6.93c2.76 23.69-6.58 46.36-23.21 56.29-5.01 2.99-17.15 7.08-21.04 7.08-.55 0-1.59-1.97-2.32-4.38z"/>
    
    <path id="bagaj" fill="#c0c0c0" d="m140.69 337.27c-18.33.12-35.87 1.36-39.42 3.62-3.15 2.01-5.84 6.65-8.34 14.36-1.64 5.08-2.21 9.98-2.6 22.5-.47 15.16-.39 16.2 1.69 19.71 3.63 6.14 12.4 10.53 27.54 13.78 2.2.47 14.35.74 27 .61 20.83-.23 23.66-.47 30-2.54 3.85-1.26 8.5-3.02 10.34-3.92 4.57-2.24 9.16-7.65 9.16-10.81 0-1.43.5-4.26 1.11-6.3.88-2.95.68-6.62-1.01-18.12-3.13-21.31-5.65-27.96-11.33-29.82-6.7-2.2-25.82-3.19-44.14-3.07zm5.1 1.54c16.57.13 29.59 2.45 38.11 6.86 7.53 3.89 9.48 11.97 4.3 17.77-2.58 2.89-3.54 3.25-9.63 3.64-3.72.24 7.65-1.89 0 0 0 0-63.04-2.13-74.62-.64-12.81 1.65 2.85 1.2 0 0-.89-.37-2.8-2.09-4.25-3.82-2.09-2.5-2.63-4.2-2.63-8.32 0-2.84.44-6 .98-7.01 1.68-3.14 15.91-6.87 30.02-7.87 6.28-.45 12.2-.64 17.72-.6z"/>
    
    <path id="arka-tampon" fill="#c0c0c0" d="m124.06 438.09c-1.38-.56-9.03-1.44-17-1.94-7.98-.5-15.06-1.13-15.75-1.38-1.39-.52-1.83-13.53-.45-13.53.44 0 6.18 1.14 12.75 2.54 6.57 1.4 17.02 2.92 23.21 3.39 14.26 1.07 38.34.31 48.74-1.55 4.4-.79 10.7-1.93 14-2.53 9.84-1.8 9.96-1.78 10.33 2.09.18 1.89.06 4.86-.27 6.6l-.6 3.17-12.73.69c-7 .38-15.57 1.35-19.04 2.15-7.41 1.7-39.23 1.92-43.19.3z"/>
  </g>
</svg>