<?xml version="1.0" encoding="UTF-8" standalone="no"?>
<svg
   width="39.475708mm"
   height="20.329967mm"
   viewBox="0 0 39.475708 20.329967"
   version="1.1"
   id="svg1"
   xml:space="preserve"
   xmlns="http://www.w3.org/2000/svg"
   xmlns:svg="http://www.w3.org/2000/svg"><defs
     id="defs1" /><g
     id="layer1"
     transform="rotate(-1.7494431,-5219.819,3965.884)"><g
       id="K__c__k_Ticari"
       transform="matrix(1.4623815,0,0,1.48984,-37.88242,3.1945946)"
       style="fill:#999999;stroke-width:0.677485"><path
         style="fill:#999999;fill-opacity:1;stroke-width:0.677485"
         d="m 110.96239,119.48767 0.63112,-0.34983 -0.69246,-0.17379 c -0.7366,-0.18488 -1.49583,-1.3472 -1.49583,-2.29001 0,-0.85429 1.396,-2.10945 2.34614,-2.10945 1.01572,0 2.10539,0.94545 2.30779,2.00236 0.12156,0.63475 9.9e-4,0.9953 -0.55297,1.65364 -0.38963,0.46305 -0.90619,0.84613 -1.14792,0.85129 -0.31192,0.007 -0.2475,0.11913 0.22196,0.3875 0.63346,0.36212 0.59987,0.37812 -0.79375,0.37812 -1.34837,0 -1.40887,-0.0257 -0.82408,-0.34983 z m 1.90672,-2.19821 c 0.32101,-0.87493 -0.51268,-1.80055 -1.41724,-1.57352 -0.81478,0.2045 -1.13552,0.98964 -0.72081,1.76452 0.40795,0.76226 1.83507,0.63477 2.13805,-0.191 z m 15.85069,2.16992 c 0.43185,-0.24687 0.51674,-0.38138 0.24456,-0.3875 -0.77116,-0.0173 -1.62039,-1.21985 -1.62039,-2.29445 0,-2.09299 2.51577,-3.00328 3.86585,-1.39879 1.07162,1.27354 0.76813,2.92278 -0.64737,3.51796 l -0.80721,0.3394 0.60676,0.29222 c 0.52326,0.252 0.40649,0.29339 -0.84845,0.30075 -1.39197,0.008 -1.42646,-0.008 -0.79375,-0.36959 z m 1.79917,-1.77271 c 0.43944,-0.43944 0.3969,-1.1528 -0.0983,-1.64798 -0.60264,-0.60263 -1.36206,-0.51048 -1.84309,0.22366 -0.3513,0.53616 -0.36337,0.72846 -0.0747,1.19063 0.38169,0.61119 1.50804,0.74175 2.0161,0.23369 z M 108.0823,117.2873 c -0.90022,-0.33101 -1.32291,-0.96949 -1.32291,-1.99828 0,-0.89094 0.0685,-1.01787 0.46302,-0.85797 0.25466,0.10321 0.79773,0.30874 1.20683,0.45671 0.4909,0.17757 0.69332,0.40064 0.59531,0.65604 -0.0817,0.21284 -0.1485,0.73443 -0.1485,1.15909 0,0.78319 -0.0843,0.84526 -0.79375,0.58441 z m 6.61097,-0.40761 c -0.002,-0.32742 -0.0754,-0.8632 -0.16315,-1.19062 l -0.15953,-0.59532 h 6.39016 c 6.23579,0 6.38355,0.0124 6.11628,0.51178 -0.15064,0.28147 -0.27389,0.81725 -0.27389,1.19062 v 0.67885 h -5.95313 -5.95312 z m 17.94173,-0.0893 c -0.0758,-0.13276 -0.21613,-0.56881 -0.31178,-0.96899 -0.1605,-0.67149 -0.1123,-0.72761 0.62488,-0.72761 0.50533,0 0.79879,0.13504 0.79879,0.36757 0,0.50365 -0.94093,1.62834 -1.11189,1.32903 z m -24.79009,-2.85445 c -0.76362,-0.92011 0.77454,-2.17808 3.92336,-3.20869 0.79036,-0.25869 2.39771,-1.08838 3.57188,-1.84377 1.17417,-0.75539 2.49205,-1.51409 2.92861,-1.68601 1.44593,-0.56939 4.17574,-0.72575 9.11333,-0.52202 6.2247,0.25685 5.93323,0.0406 6.0571,4.49429 l 0.0892,3.20645 -1.80897,-0.18627 c -0.99493,-0.10244 -1.98756,-0.17737 -2.20584,-0.1665 -0.21828,0.0109 -1.83142,0.0894 -3.58477,0.17449 l -3.18789,0.15472 0.11098,-3.33358 0.11098,-3.33359 h -1.0667 c -1.40521,0 -3.87484,0.78624 -5.2973,1.68648 -0.94675,0.59917 -1.12673,0.84336 -1.05833,1.43596 l 0.0824,0.71402 3.37344,0.074 c 3.67532,0.0807 3.5651,0.0188 3.08909,1.73305 l -0.28138,1.01335 -4.81037,-0.14003 c -2.6457,-0.077 -4.98896,-0.1546 -5.20724,-0.17241 -0.21828,-0.0178 -1.11469,0.0498 -1.99203,0.15031 -1.29928,0.1488 -1.66088,0.10349 -1.94953,-0.2443 z m 24.84364,-2.03276 c 0,-1.00137 -0.0993,-1.54174 -0.26458,-1.4396 -0.46925,0.29002 -0.30967,3.04271 0.17639,3.04271 0.0485,0 0.0882,-0.7214 0.0882,-1.60311 z m -22.2076,1.06464 c 0.56897,-0.30451 0.69768,-1.04958 0.18104,-1.04804 -0.36957,10e-4 -2.05052,0.97314 -2.05052,1.18575 0,0.24289 1.3432,0.14394 1.86948,-0.13771 z"
         id="path13" /><path
         style="fill:#999999;fill-opacity:1;stroke-width:0.677485"
         d="m 111.19116,119.53333 c 0.42801,-0.20642 0.76261,-0.20642 1.19062,0 0.52269,0.25208 0.45006,0.28711 -0.59531,0.28711 -1.04537,0 -1.118,-0.035 -0.59531,-0.28711 z m 17.7035,0.0105 c 0.39516,-0.19116 0.80372,-0.19208 1.32291,-0.003 0.69295,0.25239 0.64863,0.27384 -0.57173,0.27659 -1.10728,0.002 -1.22972,-0.0421 -0.75118,-0.27361 z m -18.45404,-0.82049 c -1.2203,-0.93692 -1.24607,-2.6882 -0.0534,-3.62638 2.18954,-1.7223 4.90215,1.26517 2.99351,3.29683 -0.69339,0.73808 -2.18962,0.90578 -2.94015,0.32955 z m 2.41368,-1.2661 c 0.36696,-0.68567 -0.2937,-1.83434 -1.05503,-1.83434 -1.0529,0 -1.72326,1.35871 -1.01822,2.06375 0.51982,0.51982 1.74482,0.38427 2.07325,-0.22941 z m 15.11787,0.99288 c -1.3011,-1.38497 -0.30377,-3.88555 1.54971,-3.88555 0.97695,0 2.37292,1.24097 2.37292,2.10945 0,0.76671 -0.67943,2.0234 -1.20248,2.22411 -0.93761,0.35979 -2.14863,0.16034 -2.72015,-0.44801 z m 2.59686,-0.83941 c 0.50237,-0.60531 0.10872,-1.68658 -0.6867,-1.88621 -0.49644,-0.1246 -0.83158,-0.021 -1.23418,0.38163 -0.47181,0.47181 -0.50783,0.65109 -0.24618,1.22534 0.3535,0.77587 1.61951,0.939 2.16706,0.27924 z m -22.66787,-0.41303 c -0.31791,-0.12211 -0.70486,-0.45903 -0.85989,-0.74871 -0.32022,-0.59833 -0.38533,-2.23975 -0.0834,-2.10357 0.10914,0.0492 0.63419,0.25778 1.16677,0.46345 0.91346,0.35274 0.96023,0.42762 0.82544,1.32159 -0.17958,1.19094 -0.32954,1.34353 -1.04887,1.06724 z m 6.79211,-0.31801 c -0.002,-0.32742 -0.0754,-0.8632 -0.16315,-1.19062 l -0.15953,-0.59532 h 6.27942 6.27943 l -0.15954,0.59532 c -0.0878,0.32742 -0.16116,0.8632 -0.16315,1.19062 l -0.004,0.59531 h -5.95313 -5.95312 z m 17.77195,-0.72301 c -0.16821,-0.48252 -0.30583,-0.91907 -0.30583,-0.97012 0,-0.051 0.35718,-0.0928 0.79375,-0.0928 0.92496,0 1.02713,0.44691 0.30583,1.33768 l -0.48792,0.60256 z m -24.50051,-2.20048 c -0.49089,-0.36811 -0.49375,-0.41742 -0.0623,-1.07593 0.52599,-0.80275 1.83589,-1.5211 3.87741,-2.12637 0.79672,-0.23621 2.132,-0.90886 2.96728,-1.49478 0.83529,-0.58592 2.20749,-1.38806 3.04934,-1.78253 1.52437,-0.71428 1.55499,-0.71718 7.48376,-0.70874 3.27422,0.005 6.27838,0.0957 6.67592,0.20227 1.17462,0.31495 1.52616,1.36771 1.52616,4.57042 v 2.82306 l -1.65364,-0.17875 c -1.85908,-0.20096 -1.83489,-0.20099 -6.01927,0.007 l -3.04271,0.15094 0.0944,-3.36697 0.0944,-3.36698 -1.76226,0.14146 c -1.2195,0.0979 -2.27314,0.39296 -3.42096,0.95803 -2.04355,1.00604 -2.77319,1.7332 -2.37449,2.36642 0.23606,0.37491 0.82512,0.45956 3.62995,0.52161 l 3.34817,0.0741 -0.13535,0.65353 c -0.0744,0.35944 -0.19905,0.95881 -0.27693,1.33193 l -0.14158,0.6784 -4.68706,-0.13883 c -2.57788,-0.0764 -4.98472,-0.15286 -5.34852,-0.16999 -0.3638,-0.0171 -1.25677,0.0472 -1.98438,0.14288 -0.96682,0.12719 -1.46139,0.0702 -1.83738,-0.21175 z m 1.93578,-0.74236 c 0.99733,-0.34767 1.65891,-1.29568 0.9031,-1.2941 -0.67501,0.001 -2.24898,1.01588 -2.05731,1.32601 0.19787,0.32016 0.13964,0.32177 1.15421,-0.0319 z m 22.78806,-1.29509 c 0,-0.88194 -0.11759,-1.5875 -0.26458,-1.5875 -0.29121,0 -0.37108,2.71573 -0.0882,2.99861 0.32035,0.32035 0.35277,0.19064 0.35277,-1.41111 z"
         id="path12" /><path
         style="fill:#999999;fill-opacity:1;stroke-width:0.677485"
         d="m 110.06676,118.22059 c -0.85959,-1.02156 -0.75681,-2.14921 0.27897,-3.06069 1.4859,-1.30758 3.55741,-0.2858 3.55741,1.75471 0,2.08952 -2.46966,2.93024 -3.83638,1.30598 z m 2.51346,-0.481 c 0.63704,-0.63705 0.6708,-1.14348 0.11339,-1.7009 -0.80388,-0.80388 -2.23006,-0.22125 -2.23006,0.91104 0,0.4568 0.90325,1.31902 1.38179,1.31902 0.11314,0 0.44384,-0.23812 0.73488,-0.52916 z m 15.51381,0.77454 c -1.4935,-1.17478 -0.51502,-3.94954 1.39274,-3.94954 1.00712,0 2.09791,0.94985 2.29947,2.00236 0.12155,0.63475 9.9e-4,0.9953 -0.55297,1.65364 -0.85381,1.0147 -2.07703,1.12908 -3.13924,0.29354 z m 2.1544,-0.65726 c 1.01432,-0.71045 0.6266,-2.23395 -0.56852,-2.23395 -0.61423,0 -1.48927,0.72366 -1.48927,1.23163 0,0.38141 0.92313,1.4142 1.26404,1.4142 0.11314,0 0.47033,-0.18534 0.79375,-0.41188 z m -22.29842,-0.69757 c -0.29104,-0.15359 -0.67799,-0.4658 -0.85989,-0.6938 -0.35235,-0.44165 -0.46649,-2.27084 -0.1323,-2.12008 0.10914,0.0492 0.6415,0.26043 1.18302,0.46932 0.86552,0.33389 0.96474,0.4617 0.82055,1.05702 -0.35568,1.46845 -0.44737,1.58518 -1.01138,1.28754 z m 6.74688,-0.45641 c 0,-0.42466 -0.0723,-0.96044 -0.1606,-1.19062 -0.14367,-0.37439 0.50129,-0.41852 6.11627,-0.41852 h 6.27688 l -0.15954,0.59532 c -0.0878,0.32742 -0.16116,0.8632 -0.16315,1.19062 l -0.004,0.59531 h -5.95313 -5.95312 z m 17.76833,-0.54621 c -0.16821,-0.48252 -0.30583,-0.91907 -0.30583,-0.97012 0,-0.051 0.35718,-0.0928 0.79375,-0.0928 0.92496,0 1.02713,0.44691 0.30583,1.33768 l -0.48792,0.60256 z m -24.48406,-2.18846 c -0.466,-0.34973 -0.47041,-0.4159 -0.0685,-1.02927 0.53504,-0.81658 1.97846,-1.63351 3.86719,-2.18871 0.79672,-0.2342 2.132,-0.9052 2.96728,-1.49112 0.83529,-0.58592 2.20749,-1.38806 3.04934,-1.78253 1.5258,-0.71495 1.54943,-0.71717 7.48376,-0.70295 3.27422,0.008 6.28839,0.10138 6.69816,0.20785 1.11584,0.28995 1.50392,1.50172 1.50392,4.69598 v 2.68613 l -1.65364,-0.17875 c -1.85908,-0.20096 -1.83489,-0.20099 -6.01927,0.007 l -3.04271,0.15094 0.0944,-3.36697 0.0944,-3.36698 -1.76226,0.14146 c -1.23687,0.0993 -2.25105,0.38706 -3.40171,0.96524 -2.36079,1.18626 -2.66132,1.46282 -2.46022,2.26406 l 0.16941,0.67498 h 3.30225 3.30225 l -0.004,0.99219 c -0.007,1.72352 0.0543,1.70471 -5.04972,1.54919 -2.53194,-0.0772 -4.90118,-0.15408 -5.26498,-0.17095 -0.3638,-0.0169 -1.25677,0.0476 -1.98438,0.14335 -0.9525,0.12531 -1.46235,0.0694 -1.82093,-0.19973 z m 2.84529,-1.32266 c 0.48842,-0.58638 0.487,-0.59574 -0.10404,-0.68403 -0.6291,-0.094 -1.86173,0.66479 -2.06355,1.27025 -0.19491,0.58475 1.59559,0.10051 2.16759,-0.58622 z m 21.8621,-0.72681 c 0,-0.88194 -0.11759,-1.5875 -0.26458,-1.5875 -0.29121,0 -0.37108,2.71573 -0.0882,2.99861 0.32035,0.32035 0.35277,0.19064 0.35277,-1.41111 z"
         id="path11" /><path
         style="fill:#999999;fill-opacity:1;stroke-width:0.677485"
         d="m 110.39668,118.53752 c -0.89089,-0.70077 -1.10368,-1.66553 -0.58753,-2.66367 1.09789,-2.12308 4.09399,-1.35262 4.09399,1.05278 0,1.84282 -2.02748,2.77426 -3.50646,1.61089 z m 2.18354,-0.79793 c 0.63704,-0.63705 0.6708,-1.14348 0.11339,-1.7009 -0.49346,-0.49346 -1.46733,-0.5435 -1.91256,-0.0983 -0.50517,0.50517 -0.3692,1.46837 0.27054,1.91645 0.75675,0.53005 0.89164,0.5197 1.52863,-0.11728 z m 15.4661,0.67348 c -1.07061,-1.07061 -0.85725,-2.79686 0.42782,-3.46139 1.05239,-0.54421 1.69141,-0.48364 2.53278,0.24008 0.55526,0.4776 0.72913,0.86436 0.72913,1.62178 0,1.9552 -2.32581,2.96346 -3.68973,1.59953 z m 2.20211,-0.5562 c 0.63974,-0.44808 0.77571,-1.41128 0.27054,-1.91645 -0.70226,-0.70226 -2.32833,-0.0793 -2.32833,0.89202 0,0.39843 0.9134,1.43631 1.26404,1.43631 0.11314,0 0.47033,-0.18534 0.79375,-0.41188 z m -15.40466,-0.7126 c -0.0556,-0.1819 -0.16795,-0.71768 -0.24967,-1.19062 l -0.14857,-0.8599 h 6.20448 6.20448 l -0.14857,0.8599 c -0.0817,0.47294 -0.19407,1.00872 -0.24967,1.19062 -0.14629,0.4786 -11.46619,0.4786 -11.61248,0 z m -7.38991,-0.27386 C 106.9266,116.48486 106.5183,114.3 106.97352,114.3 c 0.15609,0 0.35173,0.10991 0.43474,0.24423 0.083,0.13433 0.51517,0.32422 0.96033,0.422 0.57374,0.12601 0.7651,0.29316 0.65729,0.5741 -0.0836,0.21798 -0.22401,0.68293 -0.31193,1.03321 -0.1786,0.71159 -0.56759,0.80323 -1.26009,0.29687 z m 25.16863,-0.36711 c -0.0762,-0.26593 -0.2279,-0.70135 -0.33719,-0.96761 -0.16928,-0.41242 -0.0856,-0.47119 0.56529,-0.39688 0.59546,0.068 0.74482,0.20397 0.67705,0.6164 -0.0478,0.29104 -0.23989,0.68721 -0.42681,0.88038 -0.28124,0.29065 -0.36373,0.26783 -0.47834,-0.13229 z m -24.47404,-2.46259 c -0.73496,-0.31213 -0.74458,-0.53904 -0.0543,-1.28 0.86881,-0.93255 1.66273,-1.35772 3.5352,-1.8932 0.96727,-0.27661 2.20198,-0.84917 2.74382,-1.27236 1.50956,-1.17901 3.21933,-2.08616 4.80349,-2.54858 1.53669,-0.44856 6.47916,-0.53652 10.95573,-0.19498 3.06736,0.23403 3.08531,0.25939 3.08531,4.35765 v 3.15809 l -1.38906,-0.18966 c -1.53461,-0.20953 -1.66976,-0.20928 -6.01927,0.0111 l -3.04271,0.1542 0.0884,-3.36104 0.0884,-3.36103 -1.73178,0.11027 c -1.35516,0.0863 -2.17993,0.33784 -3.79257,1.15672 -1.88085,0.95507 -2.06081,1.11576 -2.06081,1.8402 v 0.79375 l 3.37344,0.074 3.37344,0.074 -0.004,0.7197 c -0.002,0.39583 -0.0774,0.99508 -0.16751,1.33165 l -0.16389,0.61196 -4.66114,-0.14148 c -2.56363,-0.0778 -5.01833,-0.15921 -5.45489,-0.18089 -0.43656,-0.0217 -1.27,0.033 -1.85209,0.1216 -0.58208,0.0886 -1.32622,0.0473 -1.65364,-0.0918 z m 2.64583,-1.35832 c 0.674,-0.81178 0.57134,-1.02235 -0.36718,-0.75318 -0.88611,0.25413 -1.81563,0.96398 -1.81563,1.38654 0,0.44536 1.6957,-0.0467 2.18281,-0.63336 z m 21.89427,-0.76364 c 0,-0.88194 -0.11759,-1.5875 -0.26458,-1.5875 -0.29121,0 -0.37108,2.71573 -0.0882,2.99861 0.32035,0.32035 0.35277,0.19064 0.35277,-1.41111 z"
         id="path10" /><path
         style="fill:#999999;fill-opacity:1;stroke-width:0.677485"
         d="m 110.50572,118.63893 c -0.91846,-0.64332 -1.16565,-1.55416 -0.71469,-2.63347 0.92314,-2.20938 4.11211,-1.57338 4.11211,0.82011 0,1.80691 -1.93335,2.83883 -3.39742,1.81336 z m 2.21404,-0.90736 c 0.69675,-0.7699 0.2665,-1.94364 -0.75572,-2.06162 -1.36704,-0.15779 -1.99261,1.08731 -1.0626,2.11495 0.57194,0.63199 1.21519,0.61313 1.81832,-0.0533 z m 15.32656,0.6815 c -1.08335,-1.08335 -0.85655,-2.79722 0.46027,-3.47818 1.57239,-0.81311 3.17655,0.1563 3.17655,1.91962 0,1.94393 -2.27606,2.91933 -3.63682,1.55856 z m 2.3063,-0.5822 c 0.26612,-0.24083 0.48385,-0.70251 0.48385,-1.02594 0,-1.39136 -2.03601,-1.63082 -2.50334,-0.29442 -0.22704,0.64926 -0.17718,0.8257 0.35517,1.25677 0.75932,0.61486 1.04319,0.62571 1.66432,0.0636 z m -10.6948,-0.56014 -4.96093,-0.072 v -0.63398 c 0,-0.34869 -0.0723,-0.82231 -0.1606,-1.05249 -0.14367,-0.37438 0.50106,-0.41852 6.11372,-0.41852 5.61266,0 6.25739,0.0441 6.11373,0.41852 -0.0883,0.23018 -0.1606,0.69392 -0.1606,1.03054 0,0.77985 -0.40938,0.82275 -6.94532,0.72792 z m -12.17083,-0.34609 c -0.32973,-0.19205 -0.46302,-0.60413 -0.46302,-1.43147 v -1.16179 l 0.7276,0.37956 c 0.40019,0.20875 0.88917,0.38029 1.08664,0.38118 0.23953,0.001 0.29426,0.15575 0.16442,0.46465 -0.10705,0.25467 -0.25273,0.73092 -0.32374,1.05834 -0.13995,0.6453 -0.4688,0.7307 -1.1919,0.30953 z m 24.98082,-1.02511 c -0.26453,-0.75881 -0.24212,-0.80578 0.38437,-0.80578 0.56559,0 0.65273,0.10597 0.58155,0.7072 -0.11824,0.99884 -0.63375,1.05144 -0.96592,0.0986 z m -24.31936,-1.85882 c -0.8146,-0.34595 -0.75432,-0.59396 0.39687,-1.63293 0.63001,-0.56859 1.61997,-1.07988 2.71198,-1.40067 0.94589,-0.27787 2.67229,-1.12122 3.83646,-1.87411 1.16417,-0.7529 2.65245,-1.58388 3.30729,-1.84662 1.49294,-0.59901 6.2124,-0.80039 10.7863,-0.46025 4.11772,0.30622 4.01068,0.18916 4.02196,4.39868 l 0.008,3.14252 -1.38906,-0.19208 c -1.48725,-0.20565 -1.66423,-0.20523 -6.24091,0.0145 -2.80822,0.13486 -2.99091,0.11341 -2.86107,-0.33589 0.26795,-0.92718 0.49181,-5.04941 0.30601,-5.63482 -0.17366,-0.54715 -0.31498,-0.58377 -1.8703,-0.48474 -1.2995,0.0827 -2.15149,0.34531 -3.74324,1.15358 -1.88085,0.95507 -2.06081,1.11576 -2.06081,1.8402 v 0.79375 l 3.37344,0.074 3.37344,0.074 -0.004,0.7197 c -0.002,0.39583 -0.0774,0.99523 -0.1676,1.332 l -0.16398,0.6123 -4.52876,-0.1447 c -2.49082,-0.0796 -4.94548,-0.16223 -5.4548,-0.18367 -0.50932,-0.0214 -1.40229,0.0346 -1.98438,0.12448 -0.58208,0.0899 -1.32622,0.0497 -1.65364,-0.0894 z m 2.45942,-1.18389 c 0.62333,-0.62333 0.84895,-1.20265 0.46838,-1.20265 -0.53222,0 -2.46478,1.15949 -2.46478,1.47881 0,0.611 1.28731,0.43293 1.9964,-0.27616 z m 22.08068,-1.08597 c 0,-1.08957 -0.0985,-1.67455 -0.26458,-1.57189 -0.14552,0.0899 -0.26458,0.87087 -0.26458,1.73541 0,0.87153 0.11788,1.57188 0.26458,1.57188 0.1495,0 0.26458,-0.75485 0.26458,-1.7354 z"
         id="path9" /><path
         style="fill:#999999;fill-opacity:1;stroke-width:0.677485"
         d="m 110.31923,118.41307 c -1.14845,-1.14846 -0.78916,-3.03437 0.67536,-3.54491 0.92218,-0.32147 1.4672,-0.18582 2.31323,0.57572 1.31797,1.18635 0.29539,3.61862 -1.52135,3.61862 -0.51551,0 -1.05786,-0.24006 -1.46724,-0.64943 z m 2.40053,-0.6815 c 0.69675,-0.7699 0.2665,-1.94364 -0.75572,-2.06162 -1.36704,-0.15779 -1.99261,1.08731 -1.0626,2.11495 0.57194,0.63199 1.21519,0.61313 1.81832,-0.0533 z m 15.32656,0.6815 c -1.38125,-1.38125 -0.34591,-3.71767 1.62269,-3.66187 1.27915,0.0363 1.96121,0.80302 1.96121,2.20474 0,1.89166 -2.23903,2.802 -3.5839,1.45713 z m 2.37438,-0.56009 c 0.5199,-0.51991 0.53804,-1.53462 0.0349,-1.9522 -0.66161,-0.54909 -1.82823,-0.2317 -2.1099,0.57402 -0.45922,1.31358 1.10241,2.35078 2.07501,1.37818 z m -22.98096,-1.05833 c -0.2347,-0.23471 -0.41577,-0.86162 -0.41577,-1.43952 v -1.02375 l 0.7276,0.37956 c 0.40019,0.20875 0.85989,0.38029 1.02158,0.38118 0.21365,0.001 0.21679,0.2908 0.0115,1.05997 -0.30185,1.13089 -0.67721,1.31023 -1.34489,0.64256 z m 7.42826,-0.0473 c -0.071,-0.25466 -0.20613,-0.73091 -0.30024,-1.05833 l -0.17112,-0.59532 h 6.26385 c 5.62152,0 6.24726,0.0432 6.10212,0.42146 -0.0889,0.2318 -0.23366,0.70805 -0.32158,1.05833 l -0.15984,0.63688 h -5.64203 c -5.14778,0 -5.65334,-0.0406 -5.77116,-0.46302 z m 17.71657,-0.48466 c -0.29368,-0.76532 -0.16641,-1.16899 0.36857,-1.16899 0.29104,0 0.52916,0.16886 0.52916,0.37524 0,0.54908 -0.28948,1.21226 -0.52916,1.21226 -0.11439,0 -0.28024,-0.18833 -0.36857,-0.41851 z m -24.44783,-2.30402 -0.60703,-0.35133 0.56589,-0.71941 c 0.64551,-0.82063 1.96149,-1.54976 3.69087,-2.04494 0.65484,-0.18751 2.14312,-0.96247 3.30729,-1.72213 3.52712,-2.3016 3.84229,-2.36962 10.70001,-2.30932 7.68307,0.0676 7.26318,-0.1781 7.36622,4.30969 l 0.0746,3.24767 -1.39748,-0.19289 c -1.56203,-0.21559 -2.01509,-0.21485 -6.18096,0.0101 l -2.93139,0.15828 0.23086,-1.93298 c 0.12698,-1.06315 0.19595,-2.59119 0.15327,-3.39565 l -0.0776,-1.46266 -1.44395,0.0953 c -1.96007,0.12939 -3.46989,0.618 -5.05734,1.63666 -1.11138,0.71317 -1.31872,0.9692 -1.25181,1.54576 l 0.0802,0.69101 3.37344,0.074 3.37344,0.074 -0.004,0.7197 c -0.002,0.39583 -0.0774,0.99523 -0.1676,1.332 l -0.16398,0.6123 -4.52876,-0.1447 c -2.49082,-0.0796 -4.94548,-0.16223 -5.4548,-0.18367 -0.50932,-0.0214 -1.40229,0.0383 -1.98438,0.13274 -0.68762,0.11156 -1.27095,0.0486 -1.66535,-0.17963 z m 2.42342,-1.00084 c 0.88507,-0.69619 0.94857,-1.41693 0.10183,-1.15573 -1.15874,0.35744 -2.05052,0.92892 -2.05052,1.31402 0,0.5749 1.13367,0.48281 1.94869,-0.15829 z m 22.33946,-1.10527 c -0.0825,-1.73235 -0.42748,-2.13055 -0.83698,-0.96615 -0.3266,0.92868 0.008,2.61979 0.51824,2.61979 0.31962,0 0.38207,-0.32399 0.31874,-1.65364 z"
         id="path8" /><path
         style="fill:#999999;fill-opacity:1;stroke-width:0.677485"
         d="m 110.31923,118.41307 c -1.40566,-1.40566 -0.5116,-3.5839 1.47101,-3.5839 2.20607,0 2.97208,2.84487 1.03564,3.84624 -1.06986,0.55325 -1.76367,0.48064 -2.50665,-0.26234 z m 2.3063,-0.5822 c 0.96074,-0.86946 0.45209,-2.20795 -0.83906,-2.20795 -0.88569,0 -1.32292,0.45037 -1.32292,1.36269 0,1.16741 1.26117,1.66049 2.16198,0.84526 z m 15.77508,0.82176 c -0.9987,-0.5421 -1.26941,-2.01742 -0.54816,-2.98734 0.70446,-0.94734 2.4361,-1.11946 3.2341,-0.32146 0.77502,0.77502 0.72458,2.2389 -0.10576,3.06924 -0.734,0.734 -1.53267,0.80815 -2.58018,0.23956 z m 2.02009,-0.79965 c 0.49346,-0.49346 0.5435,-1.46733 0.0983,-1.91256 -0.40929,-0.40929 -1.60154,-0.40929 -2.01083,0 -0.44806,0.44806 -0.39402,1.27607 0.12038,1.84448 0.5374,0.59382 1.23975,0.6205 1.79218,0.0681 z m -22.80869,-1.05444 c -0.44101,-0.30889 -0.58804,-0.67649 -0.58804,-1.47021 0,-1.04081 0.01,-1.05151 0.58804,-0.64645 0.32342,0.22653 0.80386,0.41187 1.06764,0.41187 0.39218,0 0.42968,0.0933 0.20571,0.51178 -0.15064,0.28147 -0.27389,0.75772 -0.27389,1.05833 0,0.65407 -0.21631,0.68322 -0.99946,0.13468 z m 7.25164,-0.18343 c -0.34712,-1.29527 -0.52765,-1.25677 5.89389,-1.25677 h 6.06065 l -0.28421,0.92604 -0.28421,0.92604 h -5.61329 c -5.59753,0 -5.61374,-0.002 -5.77283,-0.59531 z m 17.72092,-0.35237 c -0.26834,-0.69929 -0.18475,-0.9044 0.36857,-0.9044 0.29104,0 0.52916,0.10932 0.52916,0.24294 0,0.43485 -0.31609,1.07997 -0.52916,1.07997 -0.11439,0 -0.28024,-0.18833 -0.36857,-0.41851 z m -24.17154,-2.22505 c -0.32742,-0.13739 -0.59531,-0.41148 -0.59531,-0.60908 0,-0.83297 2.31003,-2.21994 4.4976,-2.70041 0.49754,-0.10928 1.50482,-0.64661 2.23841,-1.19408 3.75665,-2.80354 6.09793,-3.23233 14.61599,-2.67686 4.07094,0.26547 4.048,0.24091 4.048,4.33539 v 3.16064 l -1.25677,-0.17548 c -1.43941,-0.20097 -2.51945,-0.19981 -6.44479,0.007 l -2.80677,0.14783 0.23777,-1.51624 c 0.13077,-0.83394 0.20319,-2.35931 0.16094,-3.38972 l -0.0768,-1.87348 -1.48606,0.0654 c -1.7987,0.0792 -3.35471,0.601 -5.06512,1.69857 -1.06432,0.68297 -1.26849,0.94011 -1.20192,1.51374 l 0.0802,0.69101 3.37344,0.074 c 3.72544,0.0818 3.58386,-0.002 3.20567,1.88928 l -0.16777,0.83885 -4.39629,-0.13748 c -2.41796,-0.0756 -4.93208,-0.15334 -5.58692,-0.17273 -0.65484,-0.0194 -1.54781,0.0342 -1.98438,0.11919 -0.43656,0.085 -1.06164,0.042 -1.38906,-0.0953 z m 24.54011,-2.26684 c 0,-1.706 -0.14678,-1.98073 -0.74084,-1.38668 -0.64636,0.64636 -0.19089,3.66669 0.48953,3.24617 0.13822,-0.0854 0.25131,-0.9222 0.25131,-1.85949 z m -22.63941,1.43067 c 0.64623,-0.29445 1.14717,-1.16737 0.84392,-1.47061 -0.34954,-0.34955 -2.81076,1.00924 -2.81076,1.55177 0,0.32341 1.18633,0.27446 1.96684,-0.0812 z"
         id="path7" /></g></g></svg>
