<?xml version="1.0" encoding="UTF-8" standalone="no"?>
<!-- Created with Inkscape (http://www.inkscape.org/) -->

<svg
   width="67.862732mm"
   height="20.666761mm"
   viewBox="0 0 67.862732 20.666761"
   version="1.1"
   id="svg1"
   xml:space="preserve"
   xmlns:inkscape="http://www.inkscape.org/namespaces/inkscape"
   xmlns:sodipodi="http://sodipodi.sourceforge.net/DTD/sodipodi-0.dtd"
   xmlns="http://www.w3.org/2000/svg"
   xmlns:svg="http://www.w3.org/2000/svg"><sodipodi:namedview
     id="namedview1"
     pagecolor="#505050"
     bordercolor="#eeeeee"
     borderopacity="1"
     inkscape:showpageshadow="0"
     inkscape:pageopacity="0"
     inkscape:pagecheckerboard="0"
     inkscape:deskcolor="#505050"
     inkscape:document-units="mm"><inkscape:page
       x="0"
       y="0"
       width="67.862732"
       height="20.666761"
       id="page2"
       margin="0"
       bleed="0" /></sodipodi:namedview><defs
     id="defs1" /><g
     inkscape:label="Katman 1"
     inkscape:groupmode="layer"
     id="layer1"
     transform="translate(-87.460391,-126.28577)"><g
       id="Otomobil__SUV"
       transform="translate(17.470588,64.890756)"
       style="fill:#999999"
       inkscape:label="Otomobil"><path
         style="fill:#999999;fill-opacity:1"
         d="m 78.448959,81.580249 c -1.225702,-0.647629 -1.752424,-1.187522 -2.280515,-2.337542 -1.223708,-2.664858 -0.210429,-5.393566 2.525128,-6.80004 1.404684,-0.722213 3.434678,-0.560839 4.866783,0.386883 2.45505,1.624676 2.88561,5.408471 0.875969,7.698082 -1.230579,1.402015 -4.303604,1.942272 -5.987365,1.052617 z m 2.706467,-0.777603 c -0.08792,-0.08792 -0.316122,-0.09732 -0.507118,-0.02089 -0.211067,0.08446 -0.148372,0.147157 0.159852,0.159853 0.278915,0.01149 0.435185,-0.05105 0.347266,-0.138965 z m 0.521414,-0.832335 c 0.01869,-0.254661 0.05741,-0.701145 0.08604,-0.992187 0.02863,-0.291042 -0.03272,-0.901911 -0.136336,-1.357487 -0.174121,-0.765573 -0.141268,-0.819313 0.433678,-0.709404 0.342139,0.0654 0.889961,0.496004 1.217383,0.956887 0.327422,0.460883 0.595312,0.706874 0.595312,0.546647 0,-0.639475 -1.093287,-1.633267 -1.979731,-1.799565 -0.511877,-0.09603 -0.930685,-0.273687 -0.930685,-0.394795 0,-0.376575 0.675547,-0.803747 1.546571,-0.977951 0.459073,-0.09182 0.834679,-0.264883 0.834679,-0.384596 0,-0.119713 -0.397607,-0.07507 -0.883572,0.09922 -0.994165,0.356542 -2.556012,1.590609 -2.556012,2.019589 0,0.741582 -1.181484,0.113711 -1.945665,-1.033977 -0.312441,-0.46924 -0.435585,-0.53199 -0.435585,-0.221957 0,0.60908 1.502322,1.802183 2.269259,1.802183 0.352637,0 0.641158,0.07992 0.641158,0.177604 0,0.427524 -0.927919,1.145312 -1.480601,1.145312 -0.332659,0 -0.670554,0.106335 -0.750877,0.236299 -0.370558,0.599576 1.890292,-0.279148 2.417927,-0.939774 l 0.583324,-0.730352 0.246514,0.650768 c 0.16953,0.447539 0.136177,0.919304 -0.106802,1.510663 -0.274407,0.667846 -0.280356,0.859896 -0.02664,0.859896 0.179673,0 0.34197,-0.208359 0.36066,-0.463021 z m -1.390046,-2.735033 c -0.272658,-0.441171 0.340574,-0.947078 0.70557,-0.582083 0.305309,0.305309 0.114226,0.869721 -0.294447,0.869721 -0.128344,0 -0.313349,-0.129437 -0.411123,-0.287638 z m 0.0068,-3.218092 c 0.110202,-0.259911 0.08235,-0.46302 -0.0635,-0.46302 -0.280318,0 -0.609551,1.302475 -0.56012,2.215885 0.01781,0.329055 0.112726,0.178171 0.228861,-0.363802 0.109139,-0.509323 0.286779,-1.134401 0.394756,-1.389063 z m 41.258426,7.318954 c -4.56666,-2.96108 -2.15036,-9.907043 3.23521,-9.300011 2.56532,0.289149 4.32941,2.364172 4.32941,5.09251 0,1.644027 -0.37927,2.560353 -1.49774,3.61859 -1.57434,1.489564 -4.27375,1.751595 -6.06688,0.588911 z m 3.13788,-0.547191 c -0.17913,-0.07248 -0.53632,-0.07689 -0.79375,-0.0098 -0.25743,0.06708 -0.11087,0.126382 0.3257,0.131774 0.43656,0.0054 0.64718,-0.0495 0.46805,-0.12197 z m 0.40602,-0.884783 c 0.14295,-1.231575 0.12996,-1.759166 -0.0598,-2.428914 -0.1829,-0.645555 -0.14539,-0.696255 0.41844,-0.565583 0.34065,0.07895 0.88666,0.457582 1.21336,0.841414 0.3267,0.383831 0.59459,0.5698 0.59531,0.413266 0.002,-0.491172 -1.15258,-1.370283 -2.04921,-1.559932 -1.38839,-0.293665 -0.96268,-1.007997 0.79668,-1.336777 0.54731,-0.102279 1.05575,-0.284083 1.12987,-0.404008 0.15076,-0.243944 -0.86567,-0.100868 -1.78734,0.251591 -0.33123,0.126663 -0.8265,0.479278 -1.10061,0.783589 -0.91114,1.011528 -1.32987,-0.168066 -0.57401,-1.617042 0.31896,-0.611446 0.32129,-0.727604 0.0146,-0.727604 -0.49098,0 -0.78095,2.038731 -0.42335,2.976562 0.2432,0.637813 0.2146,0.727604 -0.23177,0.727604 -0.28006,0 -0.87188,-0.386953 -1.31514,-0.859896 -0.44327,-0.472942 -0.80649,-0.721651 -0.80716,-0.552686 -0.002,0.507243 1.58007,1.677166 2.26803,1.677166 0.38669,0 0.64116,0.153823 0.64116,0.387566 0,0.454787 -0.79866,0.93535 -1.55449,0.93535 -0.29202,0 -0.59666,0.106335 -0.67699,0.236299 -0.28759,0.465341 1.78936,-0.20577 2.33757,-0.75532 0.45444,-0.455556 0.48826,-0.59838 0.18609,-0.785903 -0.22234,-0.137979 -0.29785,-0.415323 -0.18977,-0.696991 0.22793,-0.593977 0.53662,-0.26672 0.94021,0.996771 0.22407,0.7015 0.23314,1.128057 0.032,1.50396 -0.33195,0.620243 -0.36333,1.088684 -0.0729,1.088684 0.11434,0 0.23552,-0.238125 0.26931,-0.529166 z M 70.90106,78.668983 c -0.359802,-0.242788 -0.703202,-0.480321 -0.763113,-0.527852 -0.163037,-0.129348 0.562059,-2.205715 0.770266,-2.205715 0.09887,0 0.315386,-0.297657 0.481146,-0.661459 0.241348,-0.529701 0.229438,-0.661458 -0.05979,-0.661458 -0.465468,0 -0.694467,-1.515527 -0.280866,-1.858785 0.173127,-0.143683 0.256858,-0.564222 0.186069,-0.934532 -0.412475,-2.157726 4.711396,-3.575337 16.669658,-4.611958 2.941542,-0.254993 3.196382,-0.324847 4.827726,-1.32334 2.58783,-1.583927 5.604896,-3.044751 7.677224,-3.717211 1.64354,-0.533322 2.53132,-0.614468 7.88457,-0.720672 3.85754,-0.07653 6.79536,-0.0081 8.14843,0.189712 2.13316,0.311911 8.02994,2.194886 11.98805,3.82806 1.556,0.642027 2.92531,0.975812 5.00868,1.220917 2.79216,0.328494 2.86413,0.353568 2.74867,0.957568 -0.0652,0.341132 -0.0127,0.620241 0.1167,0.620241 0.13058,0 0.15893,0.744989 0.0637,1.674281 -0.16395,1.60025 -0.13586,1.714905 0.63512,2.593009 0.72975,0.831138 0.76432,0.947504 0.3626,1.220575 -0.41243,0.280357 -0.41108,0.302957 0.019,0.317409 0.34757,0.01168 0.46302,0.240914 0.46302,0.919368 0,0.729755 -0.19108,1.053577 -0.99219,1.681508 -1.40412,1.100581 -2.01883,1.383261 -3.58412,1.648197 -0.75725,0.128169 -1.7455,0.310853 -2.19612,0.405965 l -0.81931,0.172931 -0.16223,-1.737288 c -0.18387,-1.969051 -0.59803,-2.919751 -1.79217,-4.113886 -1.24164,-1.24164 -2.46511,-1.66384 -4.50602,-1.554959 -3.27741,0.174846 -5.25064,2.230009 -5.47337,5.700649 l -0.12323,1.920158 h -15.9725 -15.972491 l -0.0044,-2.050521 c -0.0053,-2.474592 -0.596479,-3.7275 -2.335788,-4.949933 -1.036686,-0.72861 -1.338715,-0.804755 -3.192078,-0.804755 -1.791752,0 -2.1846,0.09103 -3.149949,0.729863 -1.821157,1.205185 -2.546032,2.570875 -2.656786,5.005478 l -0.09416,2.069868 h -1.632905 c -1.086936,0 -1.851634,-0.147595 -2.287088,-0.441433 z m 2.136068,-1.433311 c 0.162431,-0.303505 0.235798,-0.611359 0.163038,-0.684119 -0.07276,-0.07276 -0.261159,0.108498 -0.418664,0.402798 -0.171523,0.320494 -0.631088,0.577876 -1.145915,0.641776 -0.853723,0.105963 -0.852887,0.106972 0.123334,0.149029 0.751955,0.0324 1.052264,-0.08731 1.278207,-0.509484 z m 2.884258,-6.681329 c -0.06504,-0.05799 -0.405678,0.265821 -0.756967,0.719586 l -0.638707,0.825028 0.756968,-0.719586 c 0.416332,-0.395773 0.70375,-0.767035 0.638706,-0.825028 z m -1.507323,-0.08582 c -0.181901,-0.0734 -0.479557,-0.0734 -0.661458,0 -0.181901,0.0734 -0.03307,0.133453 0.330729,0.133453 0.363802,0 0.51263,-0.06005 0.330729,-0.133453 z m 32.665597,-5.895199 c 0.47869,-1.228684 0.87034,-2.282873 0.87034,-2.342643 0,-0.253274 -4.5447,0.287968 -6.61458,0.787751 -2.778112,0.670788 -5.996412,2.106046 -5.08266,2.266702 0.421503,0.07411 0.653363,0.343914 0.761898,0.886589 l 0.156012,0.780064 4.51933,-0.07225 4.51932,-0.07225 z m 9.21716,2.118232 c 4.7689,-0.34684 6.29899,-0.931584 5.3692,-2.05191 -0.88073,-1.061218 -4.67702,-2.032736 -9.11821,-2.33346 l -2.67823,-0.18135 -0.18003,1.547479 c -0.099,0.851113 -0.24651,1.934432 -0.32778,2.407374 l -0.14774,0.859896 1.94767,-0.0081 c 1.07122,-0.0045 3.38203,-0.112423 5.13512,-0.239925 z"
         id="path7" /><path
         style="fill:#999999;fill-opacity:1"
         d="m 78.36119,81.453109 c -2.822305,-1.397005 -3.523048,-5.181533 -1.421794,-7.678731 0.84278,-1.001588 2.505368,-1.796091 3.758521,-1.796091 2.077188,0 4.557978,1.936409 4.914331,3.835938 0.819543,4.368535 -3.317644,7.585874 -7.251058,5.638884 z m 2.799748,-0.672994 c -0.254661,-0.06655 -0.67138,-0.06655 -0.926041,0 -0.254662,0.06655 -0.0463,0.121 0.46302,0.121 0.509323,0 0.717683,-0.05445 0.463021,-0.121 z M 78.75764,80.048096 c 0,-0.21188 -0.09099,-0.329 -0.202204,-0.260268 -0.111212,0.06873 -0.269279,0.01644 -0.351258,-0.116206 -0.167526,-0.271062 0.436817,-0.561206 1.168943,-0.561206 0.266204,0 0.792406,-0.366512 1.169338,-0.81447 0.591813,-0.70333 0.709319,-0.751959 0.86112,-0.356372 0.09668,0.251953 0.05354,0.916121 -0.09589,1.475928 -0.199373,0.746951 -0.190924,1.01783 0.03175,1.01783 0.166881,0 0.321513,-0.208359 0.343626,-0.463021 0.02211,-0.254661 0.07127,-0.760677 0.109238,-1.124479 0.03797,-0.363802 -0.02217,-0.929349 -0.133631,-1.256771 -0.438904,-1.28926 1.549036,-0.316379 2.02739,0.992188 0.100847,0.275874 0.151449,0.229435 0.165968,-0.152317 0.02761,-0.726041 -0.986154,-1.649821 -2.042352,-1.86106 -1.370813,-0.274163 -0.935013,-0.974245 0.809392,-1.300232 1.173665,-0.21933 1.398794,-0.470053 0.839131,-0.934532 -0.333453,-0.276742 -0.393933,-0.275604 -0.327816,0.0062 0.04494,0.191518 -0.260403,0.441729 -0.685073,0.561379 -0.421381,0.118724 -1.08448,0.520842 -1.473553,0.893597 -0.774826,0.742331 -1.067591,0.655344 -1.067591,-0.317205 0,-0.994465 0.480347,-1.6583 1.199934,-1.6583 0.358683,0 0.65215,-0.0893 0.65215,-0.198438 0,-0.10914 -0.446485,-0.198437 -0.992188,-0.198437 -0.800825,0 -1.000851,0.10206 -1.037109,0.529167 -0.02471,0.291041 -0.07426,0.826822 -0.110114,1.190625 -0.03586,0.363802 0.02703,0.98888 0.139751,1.389062 0.162804,0.578 0.117083,0.727604 -0.222365,0.727604 -0.399842,0 -0.891223,-0.452148 -1.869018,-1.719791 l -0.408172,-0.529167 0.171726,0.529167 c 0.313249,0.965259 1.474083,1.984375 2.260323,1.984375 0.409337,0 0.744249,0.112311 0.744249,0.24958 0,0.420189 -1.136022,1.073336 -1.866858,1.073336 -0.995928,0 -1.127998,0.272888 -0.470691,0.972559 0.682398,0.72638 0.661855,0.71925 0.661855,0.229705 z m 1.542247,-2.791632 c -0.09057,-0.146549 0.0266,-0.339852 0.26038,-0.429562 0.506584,-0.194394 0.788913,0.01982 0.545405,0.413827 -0.219705,0.355489 -0.59132,0.362746 -0.805785,0.01573 z m 41.800403,4.395653 c -1.04664,-0.456048 -2.37123,-1.985162 -2.77226,-3.200306 -0.41009,-1.24258 -0.14763,-3.014226 0.61397,-4.144361 2.77123,-4.112231 9.16856,-2.277626 9.17331,2.630694 0.003,2.97549 -2.06483,5.095832 -4.94644,5.072332 -0.69845,-0.0057 -1.62931,-0.166957 -2.06858,-0.358359 z m 2.58964,-0.863168 c -0.17913,-0.07248 -0.53632,-0.07689 -0.79375,-0.0098 -0.25743,0.06708 -0.11087,0.126382 0.3257,0.131774 0.43656,0.0054 0.64718,-0.0495 0.46805,-0.12197 z m -1.2548,-0.569102 c -0.0815,-0.08146 -0.29496,-1.67e-4 -0.47443,0.180654 -0.25937,0.261306 -0.22898,0.291697 0.14811,0.148112 0.26094,-0.09936 0.40778,-0.247304 0.32632,-0.328766 z m 1.94793,0.136592 c -0.32046,-0.244027 -0.36745,-0.483795 -0.18925,-0.965515 0.14693,-0.397206 0.13298,-0.939461 -0.0367,-1.426212 -0.35281,-1.012064 -0.36463,-0.970963 0.27913,-0.970963 0.56671,0 1.5392,0.941703 1.55496,1.505739 0.005,0.173313 0.1265,0.387856 0.27035,0.476763 0.15536,0.09602 0.19082,-0.02269 0.0873,-0.292372 -0.13064,-0.340463 -0.0802,-0.400138 0.20147,-0.238591 0.20663,0.118486 -0.0334,-0.217931 -0.53344,-0.747594 -0.53254,-0.564115 -1.26634,-1.030036 -1.77148,-1.124802 -0.75947,-0.142477 -0.82596,-0.220052 -0.55731,-0.650232 0.26696,-0.427473 2.05451,-0.980813 2.66228,-0.824116 0.11995,0.03093 0.14722,-0.05846 0.0606,-0.198643 -0.30673,-0.496297 -2.16058,0.0815 -3.10888,0.96896 l -0.71352,0.667746 -0.16105,-0.641652 c -0.25868,-1.030683 0.25908,-2.024295 1.11134,-2.132724 0.62267,-0.07922 0.57193,-0.114009 -0.31699,-0.217337 l -1.05834,-0.12302 -0.0632,1.247299 c -0.0348,0.686015 0.0516,1.549218 0.19189,1.918229 0.21411,0.563149 0.17909,0.67093 -0.21803,0.67093 -0.56378,0 -2.01738,-1.440064 -1.80328,-1.786486 0.0823,-0.133092 -0.0187,-0.241986 -0.2243,-0.241986 -0.38669,0 -0.77961,0.675347 -0.53514,0.919814 0.0762,0.07619 0.13852,-0.0045 0.13852,-0.179368 0,-0.174838 0.36952,0.102975 0.82116,0.617361 0.58505,0.666337 1.0415,0.935249 1.5875,0.935249 0.42149,0 0.76634,0.04979 0.76634,0.110652 0,0.574361 -0.48826,0.977195 -1.3518,1.11528 -0.56619,0.09054 -1.02945,0.275488 -1.02945,0.410998 0,0.135511 -0.14883,0.160626 -0.33073,0.05581 -0.1819,-0.104814 -0.0421,0.126284 0.31071,0.513552 0.35278,0.387267 0.7695,0.702299 0.92604,0.700071 0.18501,-0.0026 0.19202,-0.07208 0.02,-0.198438 -0.14552,-0.106912 -0.29957,-0.402745 -0.34232,-0.657407 -0.0557,-0.331986 0.0987,-0.46302 0.54581,-0.46302 0.34886,0 0.96199,-0.353249 1.39181,-0.801887 0.74296,-0.77549 0.77498,-0.783694 0.97269,-0.249252 0.1229,0.332252 0.0553,0.909521 -0.1695,1.447575 -0.35542,0.850629 -0.34545,0.900488 0.20129,1.006971 0.31637,0.06162 0.63475,0.124457 0.70751,0.139646 0.0728,0.01519 -0.0596,-0.118474 -0.29402,-0.29703 z m -1.51718,-3.213903 c 0.0503,-0.242727 0.21048,-0.435033 0.356,-0.427346 0.39271,0.02074 0.32057,0.612674 -0.0914,0.750003 -0.22254,0.07418 -0.32173,-0.04677 -0.26458,-0.322657 z m -3.04065,-0.479516 c -0.0734,-0.181901 -0.13345,-0.03307 -0.13345,0.330729 0,0.363802 0.0601,0.51263 0.13345,0.330729 0.0734,-0.181901 0.0734,-0.479557 0,-0.661458 z m 7.14926,-0.248047 c -0.0845,-0.211067 -0.14715,-0.148372 -0.15985,0.159852 -0.0115,0.278915 0.051,0.435185 0.13896,0.347266 0.0879,-0.08792 0.0973,-0.316122 0.0209,-0.507118 z m -0.18074,-0.744141 c 0,-0.145521 -0.0525,-0.264583 -0.11668,-0.264583 -0.0642,0 -0.19026,0.119062 -0.28019,0.264583 -0.0899,0.145521 -0.0374,0.264584 0.11667,0.264584 0.15411,0 0.2802,-0.119063 0.2802,-0.264584 z m -5.37986,-1.708153 c 0,-0.21188 -0.10116,-0.322715 -0.2248,-0.246301 -0.12364,0.07641 -0.1563,0.249771 -0.0726,0.385236 0.21395,0.346177 0.29738,0.307197 0.29738,-0.138935 z m 4.32153,0.224463 c 0,-0.218977 -0.51375,-0.342808 -0.63154,-0.152223 -0.0764,0.123641 0.0344,0.224802 0.2463,0.224802 0.21188,0 0.38524,-0.03266 0.38524,-0.07258 z m -55.955623,4.288575 -0.789996,-0.632071 0.470118,-0.887969 c 1.329965,-2.512064 1.680649,-2.913918 2.042881,-2.340966 0.149937,0.237159 0.251131,0.268906 0.253566,0.07955 0.0061,-0.475767 -0.532176,-0.709701 -0.865669,-0.376207 -0.578641,0.57864 -0.982363,0.31566 -0.982363,-0.6399 0,-0.608437 0.146172,-0.990437 0.419059,-1.095153 0.322038,-0.123578 0.341291,-0.208872 0.08316,-0.368406 -0.267262,-0.165177 -0.258279,-0.303194 0.04396,-0.675427 0.237391,-0.292366 0.255819,-0.393307 0.04913,-0.269134 -0.62467,0.37529 -0.330503,-0.323471 0.367227,-0.872306 1.517682,-1.193809 7.167388,-2.355498 14.838643,-3.051112 l 4.291807,-0.389172 2.385047,-1.437835 c 2.471293,-1.489829 5.52735,-2.87369 7.816763,-3.539627 1.74208,-0.506735 11.95497,-0.766592 14.84461,-0.377707 2.20511,0.296762 7.42425,1.922616 11.91511,3.711768 2.04173,0.813423 3.34957,1.145645 5.48897,1.394332 2.42001,0.281305 2.8086,0.393099 2.8086,0.808008 0,0.305145 -0.19384,0.481534 -0.52917,0.481534 -0.29104,0 -0.52917,0.09875 -0.52917,0.219445 0,0.120695 0.2679,0.209992 0.59532,0.198438 0.41832,-0.01476 0.6197,0.150298 0.67735,0.555196 0.0647,0.454442 -0.0751,0.600309 -0.66145,0.690274 -0.71164,0.10918 -0.71799,0.122664 -0.14819,0.31455 0.38952,0.131179 0.59531,0.413453 0.59531,0.816583 0,0.544703 -0.14565,0.627588 -1.25677,0.715201 l -1.25677,0.0991 1.38906,0.04769 c 0.80972,0.0278 1.38906,0.169747 1.38906,0.340341 0,0.160957 0.30293,0.530931 0.67317,0.822164 0.63591,0.500207 0.64689,0.549442 0.19844,0.88956 -0.44649,0.338623 -0.44718,0.360547 -0.0117,0.368461 0.34527,0.0063 0.46181,0.227088 0.45825,0.86831 -0.004,0.667542 -0.22565,1.042645 -0.99219,1.676853 -1.38694,1.147506 -1.8307,1.346526 -3.77248,1.691891 -0.94207,0.167556 -1.96375,0.364863 -2.2704,0.438459 -0.51462,0.123508 -0.56838,-0.0012 -0.69827,-1.619334 -0.27698,-3.450573 -2.64484,-5.797245 -5.84044,-5.788177 -3.59437,0.0102 -6.00062,2.484972 -6.00062,6.171497 v 1.595999 H 102.29423 86.319707 l -0.03837,-1.98188 c -0.04424,-2.285335 -0.22367,-2.873835 -1.246968,-4.089956 -2.096374,-2.491399 -6.580299,-2.483701 -8.686971,0.01492 -1.105322,1.310966 -1.470314,2.385508 -1.470314,4.328631 v 1.72829 l -1.653646,-0.0013 c -1.345316,-0.0011 -1.800944,-0.119166 -2.443641,-0.633384 z m 2.192287,-1.005718 c 0.174625,-0.174625 0.303689,-0.621109 0.286808,-0.992188 -0.0204,-0.448428 -0.07127,-0.519412 -0.151692,-0.211666 -0.06655,0.254661 -0.231332,0.463021 -0.366183,0.463021 -0.134851,0 -0.215417,0.145018 -0.179037,0.322263 0.03719,0.181212 -0.339173,0.397578 -0.859896,0.494337 l -0.926042,0.172073 0.939271,0.03483 c 0.516599,0.01916 1.082146,-0.108045 1.256771,-0.28267 z m 2.434167,-6.164792 0.897555,-0.926041 -1.573257,0.04157 -1.573257,0.04157 1.320161,0.15687 1.32016,0.156871 -0.923285,0.72467 c -0.507807,0.398568 -0.797814,0.72599 -0.644459,0.727604 0.153355,0.0016 0.682726,-0.413785 1.176382,-0.923108 z M 72.953343,70.74848 c -0.08792,-0.08792 -0.316122,-0.09732 -0.507118,-0.02089 -0.211067,0.08446 -0.148372,0.147156 0.159852,0.159852 0.278915,0.01149 0.435184,-0.05105 0.347266,-0.138964 z m 20.709158,-4.073481 c 0,-0.145521 -0.05251,-0.264583 -0.116677,-0.264583 -0.06417,0 -0.190261,0.119062 -0.280198,0.264583 -0.08994,0.145521 -0.03743,0.264583 0.116677,0.264583 0.154109,0 0.280198,-0.119062 0.280198,-0.264583 z m 13.339079,-1.785938 c 0.41734,-1.127786 0.82067,-2.216208 0.89629,-2.418716 0.20421,-0.546833 -4.09782,-0.154439 -7.09208,0.646878 -2.595877,0.694701 -5.8613,2.200176 -4.819881,2.222133 0.331989,0.007 0.659411,0.19132 0.727604,0.409601 0.06819,0.218282 0.179782,0.575469 0.247976,0.79375 0.103942,0.332712 0.864222,0.396875 4.702651,0.396875 h 4.57866 z m 12.77806,1.505667 c 0.90375,-0.165963 1.77679,-0.462738 1.94009,-0.659501 1.22094,-1.471149 -2.88084,-3.03218 -9.03827,-3.439725 l -2.80917,-0.185932 -0.17731,1.290527 c -0.0975,0.70979 -0.24871,1.815244 -0.33596,2.456565 l -0.15865,1.166037 4.46804,-0.163111 c 2.45743,-0.08971 5.20748,-0.298898 6.11123,-0.46486 z"
         id="path6" /><path
         style="fill:#999999;fill-opacity:1"
         d="m 78.696686,81.647098 c -0.445833,-0.194162 -1.244557,-0.859995 -1.774941,-1.47963 -3.391879,-3.962647 1.025811,-9.859139 5.771493,-7.703475 2.837371,1.288839 3.866138,4.827461 2.155134,7.412961 -1.218358,1.841063 -4.090882,2.667631 -6.151686,1.770144 z m 4.078643,-1.409174 c 1.021825,-0.762902 1.672473,-1.75884 1.478792,-2.263564 -0.09464,-0.246623 -0.262743,-0.392365 -0.373567,-0.323872 -0.110824,0.06849 -0.41235,-0.108456 -0.670058,-0.39322 -0.257708,-0.284764 -0.866296,-0.592369 -1.352416,-0.683566 -0.732089,-0.13734 -0.842278,-0.243503 -0.641712,-0.618263 0.30921,-0.577765 2.760394,-1.201436 2.548153,-0.648344 -0.07677,0.200056 -0.02799,0.363737 0.108396,0.363737 0.136387,0 0.171948,0.198126 0.07903,0.440279 -0.1136,0.296038 -0.06754,0.377603 0.140596,0.248968 0.17025,-0.10522 0.309546,-0.374783 0.309546,-0.599028 0,-0.562596 -1.772252,-2.287454 -2.125798,-2.06895 -0.186624,0.11534 -0.120536,0.299256 0.188818,0.525461 0.261765,0.191407 0.584942,0.280643 0.718172,0.198303 0.133229,-0.08234 0.166786,-0.02763 0.07457,0.121579 -0.09222,0.14921 -0.554599,0.348677 -1.027518,0.44326 -0.472918,0.09458 -1.12107,0.496916 -1.440337,0.89407 -0.522756,0.650288 -0.59905,0.674575 -0.767165,0.244214 -0.291074,-0.745122 0.220132,-2.151976 0.816766,-2.247768 1.124911,-0.180609 1.332202,-0.376887 0.61604,-0.58331 -1.000055,-0.28825 -2.172612,-0.03109 -1.816227,0.39833 0.187021,0.225346 0.191028,0.556583 0.01242,1.026368 -0.172557,0.45386 -0.174523,0.928251 -0.0057,1.372324 0.565348,1.486978 0.0788,1.576254 -1.265283,0.232166 l -0.941234,-0.941234 0.960399,-0.683333 c 0.975387,-0.693998 1.103994,-1.367627 0.165178,-0.865189 -0.906942,0.485381 -1.363953,1.508878 -1.426771,3.195318 -0.05202,1.396614 0.03181,1.727724 0.612012,2.417255 1.30404,1.549764 3.541971,1.905172 5.024895,0.798009 z m -2.319325,0.171081 c -0.351333,-0.140453 -0.768052,-0.211753 -0.926041,-0.158444 -0.15799,0.05331 -0.444911,-0.09212 -0.637604,-0.323173 -0.2741,-0.328668 -0.308002,-0.333722 -0.155773,-0.02322 0.107017,0.218281 -0.113678,0.116309 -0.490434,-0.226604 -0.417708,-0.380186 -0.623301,-0.784291 -0.526868,-1.035591 0.113399,-0.295512 0.05784,-0.350122 -0.196367,-0.193014 -0.262398,0.162171 -0.308453,0.09908 -0.177254,-0.242819 0.09749,-0.254055 0.177254,-0.831644 0.177254,-1.28353 v -0.821612 l 0.742082,0.71096 c 0.408145,0.391028 0.996431,0.71096 1.307302,0.71096 0.310871,0 0.63377,0.110916 0.717553,0.24648 0.232883,0.376813 -0.936932,1.076436 -1.799872,1.076436 -0.675254,0 -0.724884,0.05108 -0.41382,0.425888 0.221119,0.266432 0.390097,0.315963 0.451321,0.132291 0.05383,-0.161477 0.364845,-0.293595 0.691154,-0.293595 0.326309,0 0.872923,-0.297657 1.214697,-0.661459 0.341774,-0.363802 0.719716,-0.661458 0.839871,-0.661458 0.295585,0 0.276433,1.135995 -0.03287,1.949519 -0.178449,0.469356 -0.159267,0.69847 0.06615,0.790086 0.174612,0.07097 0.198415,0.130888 0.05289,0.133152 -0.145521,0.0023 -0.552038,-0.110798 -0.903372,-0.251251 z m 1.385609,-0.144496 c -0.222431,-0.09072 -0.238381,-0.336832 -0.05577,-0.860653 0.168782,-0.484171 0.162248,-0.979499 -0.01922,-1.45679 -0.358787,-0.94368 -0.356683,-0.953317 0.208092,-0.953317 0.510784,0 1.451098,0.895211 1.707374,1.62548 0.09453,0.269356 -0.108098,0.672141 -0.532404,1.058333 -0.376756,0.342913 -0.600097,0.476014 -0.496313,0.29578 0.12695,-0.220465 0.05483,-0.276328 -0.220399,-0.170713 -0.225004,0.08634 -0.343224,0.263572 -0.262711,0.393844 0.158127,0.255855 0.140715,0.25946 -0.328647,0.06804 z m -1.408279,-3.138468 c 0,-0.242535 0.127992,-0.398309 0.284427,-0.346164 0.156435,0.05214 0.284427,0.207919 0.284427,0.346164 0,0.138244 -0.127992,0.294018 -0.284427,0.346163 -0.156435,0.05214 -0.284427,-0.103629 -0.284427,-0.346163 z m -2.645833,-2.348854 c 0,-0.05494 0.208359,-0.263301 0.463021,-0.46302 0.419643,-0.329108 0.429002,-0.319749 0.09989,0.09989 -0.345643,0.44073 -0.562915,0.580888 -0.562915,0.363126 z m 44.293239,6.855883 c -1.89436,-0.864724 -3.2233,-3.356002 -2.86501,-5.370845 0.52404,-2.946893 3.62438,-4.923603 6.32462,-4.032444 5.3549,1.767277 4.45198,9.425461 -1.14396,9.70262 -0.88249,0.04371 -1.83344,-0.07922 -2.31565,-0.299331 z m 3.32435,-0.924973 c 0.33624,-0.212643 0.33005,-0.269095 -0.0453,-0.413132 -0.35733,-0.137121 -0.38674,-0.304587 -0.16514,-0.940275 0.18458,-0.529482 0.18235,-1.023806 -0.007,-1.567191 -0.2397,-0.687602 -0.21394,-0.79375 0.19258,-0.79375 0.49516,0 1.43994,0.901707 1.68811,1.61114 0.0967,0.276502 -0.1179,0.577056 -0.6267,0.877611 -0.84626,0.499903 -0.80962,1.135217 0.0393,0.680901 0.498,-0.266522 1.2211,-1.317569 0.90646,-1.317569 -0.0883,0 0.0266,-0.187098 0.25527,-0.415774 0.65557,-0.655568 0.48522,-3.261482 -0.18608,-2.846594 -0.17254,0.106636 -0.22083,0.01523 -0.12453,-0.235726 0.0967,-0.251988 -0.14147,-0.696141 -0.61824,-1.152909 -0.62047,-0.594452 -0.84131,-0.676742 -1.10452,-0.411577 -0.26289,0.264852 -0.23379,0.295186 0.14486,0.151005 0.32557,-0.123968 0.44976,-0.06678 0.39688,0.182762 -0.0423,0.199753 0.0807,0.330473 0.27343,0.290487 0.19271,-0.03999 0.27498,0.04931 0.18282,0.198437 -0.0922,0.149127 -0.39453,0.271139 -0.67192,0.271139 -0.27739,0 -0.91587,0.361324 -1.41885,0.802943 -0.88881,0.780389 -0.91947,0.787273 -1.09156,0.245078 -0.2775,-0.874349 0.35307,-2.106354 1.07809,-2.106354 0.81051,0 1.11805,-0.520669 0.32986,-0.558454 -1.61527,-0.07743 -3.02126,0.347869 -2.72653,0.824757 0.21713,0.351325 0.95308,-0.0027 0.74875,-0.360173 -0.0952,-0.166653 -0.0713,-0.210266 0.0533,-0.09692 0.28385,0.258315 0.37874,3.630371 0.10216,3.630371 -0.11175,0 -0.57184,-0.310207 -1.02243,-0.689348 -0.84579,-0.711693 -0.95049,-1.345128 -0.30575,-1.849952 0.24061,-0.188397 0.274,-0.350176 0.0951,-0.460749 -0.49713,-0.30724 -1.22212,1.218737 -1.27333,2.68013 -0.0368,1.05115 0.0927,1.615603 0.5167,2.250544 0.94958,1.422195 3.26762,2.225375 4.38436,1.51914 z m -1.84467,-0.283575 c 0,-0.189339 -0.21794,-0.260498 -0.53994,-0.176294 -0.34045,0.08903 -0.76069,-0.07064 -1.13744,-0.432162 -0.32863,-0.315347 -0.3782,-0.401441 -0.11014,-0.191318 0.43508,0.341045 0.46892,0.333947 0.31539,-0.06615 -0.13258,-0.345501 -0.0245,-0.448186 0.47166,-0.448186 0.354,0 0.92328,-0.297657 1.26505,-0.661459 0.34178,-0.363802 0.70583,-0.661458 0.80901,-0.661458 0.40917,0 0.41668,1.011543 0.0137,1.851695 -0.43001,0.89662 -1.08733,1.371368 -1.08733,0.785328 z m -2.47962,-1.898157 c 0.0713,-0.115335 0.0333,-0.209699 -0.0844,-0.209699 -0.11773,0 -0.21406,-0.565555 -0.21406,-1.256788 v -1.256787 l 0.75502,0.859912 c 0.44739,0.509555 1.00698,0.859913 1.37344,0.859913 0.89068,0 1.03241,0.439549 0.29708,0.921353 -0.63158,0.41383 -2.37361,0.481066 -2.12703,0.0821 z m 5.55209,-1.241747 c -0.56571,-0.45102 -1.32831,-0.820036 -1.69465,-0.820036 -0.63776,0 -0.64673,-0.02139 -0.21091,-0.502965 0.25035,-0.276631 0.86742,-0.580304 1.37128,-0.674827 0.57236,-0.107375 0.84836,-0.281462 0.73557,-0.463957 -0.10636,-0.172104 -0.0598,-0.217476 0.11339,-0.11045 0.16165,0.0999 0.23273,0.341075 0.15795,0.535932 -0.0748,0.194858 0.0571,0.547338 0.29305,0.78329 0.26078,0.260774 0.39643,0.75135 0.34595,1.251026 l -0.0831,0.822023 z M 123.825,77.148089 c 0,-0.230408 0.18852,-0.418923 0.41892,-0.418923 0.23041,0 0.3718,0.141386 0.3142,0.314192 -0.16353,0.490597 -0.73312,0.571966 -0.73312,0.104731 z m -53.009866,1.355805 c -0.746428,-0.597307 -0.750182,-0.614606 -0.34423,-1.586186 0.225736,-0.540261 0.535566,-0.982292 0.688512,-0.982292 0.152947,0 0.278085,-0.223547 0.278085,-0.49677 0,-0.273224 0.187668,-0.652521 0.41704,-0.842883 0.345624,-0.286842 0.458202,-0.281063 0.657407,0.03375 0.150876,0.238436 0.241875,0.262542 0.244418,0.06475 0.0061,-0.475767 -0.532176,-0.709701 -0.865669,-0.376207 -0.578692,0.578692 -0.982363,0.315654 -0.982363,-0.640122 0,-0.721892 0.135472,-0.989021 0.595312,-1.173854 0.463994,-0.186502 0.492034,-0.242986 0.127118,-0.256057 -0.351446,-0.01259 -0.438483,-0.180625 -0.349042,-0.673865 0.06553,-0.361401 0.194476,-0.778967 0.286536,-0.927923 0.745254,-1.205846 7.02281,-2.545153 15.355548,-3.276083 4.167187,-0.365537 4.245118,-0.383963 5.680362,-1.343132 1.725253,-1.152982 5.679984,-3.083264 7.540622,-3.680537 0.72761,-0.233564 2.15636,-0.543463 3.175,-0.688664 2.39066,-0.340771 10.57215,-0.340945 12.96459,-2.75e-4 2.05332,0.292383 6.92151,1.827264 11.37708,3.587055 2.20286,0.870053 3.58505,1.232537 5.68542,1.491025 2.26154,0.278321 2.79142,0.426702 2.86368,0.801904 0.0588,0.305285 -0.0785,0.460391 -0.4074,0.460391 -0.34662,0 -0.6704,0.412671 -1.07483,1.369918 -0.31832,0.753455 -0.52388,1.424811 -0.45679,1.491903 0.0671,0.06709 0.2557,-0.22195 0.41912,-0.642314 0.16343,-0.420365 0.40523,-1.040853 0.53734,-1.378863 0.30147,-0.771289 1.13184,-0.668763 1.24926,0.154246 0.0688,0.481941 -0.0424,0.59261 -0.59531,0.59261 -0.37393,0 -0.67987,0.119062 -0.67987,0.264583 0,0.145521 0.23813,0.264583 0.52917,0.264583 0.39352,0 0.52917,0.176389 0.52917,0.6881 0,0.653167 -0.0605,0.683293 -1.19063,0.593406 -0.65484,-0.05208 -1.19062,-0.0045 -1.19062,0.10565 0,0.110189 0.59531,0.200344 1.32291,0.200344 0.86009,0 1.32292,0.112231 1.32292,0.32079 0,0.176435 0.32742,0.588872 0.72761,0.916527 0.57533,0.471063 0.6307,0.597727 0.26458,0.605251 -0.56674,0.01165 -0.60992,0.425699 -0.0661,0.634363 0.6519,0.250157 0.46821,1.453541 -0.33073,2.166584 -1.37343,1.225788 -2.33411,1.678223 -4.17516,1.966324 -1.01426,0.158718 -2.05247,0.351801 -2.30713,0.429074 -0.40008,0.121398 -0.46381,-0.05075 -0.46883,-1.266396 -0.0146,-3.54627 -2.50126,-6.111832 -5.94731,-6.136142 -3.51294,-0.02478 -5.95313,2.506748 -5.95313,6.17596 v 1.595999 h -15.875 -15.874999 v -1.407187 c 0,-3.96996 -2.228498,-6.530313 -5.683901,-6.530313 -3.556698,0 -5.82246,2.252164 -6.145796,6.108912 l -0.153302,1.828588 -1.48298,-0.0013 c -1.14603,-0.001 -1.654447,-0.138525 -2.237638,-0.605207 z m 2.15695,-1.033895 c 0.382205,-0.382205 0.409221,-1.514595 0.04924,-2.06375 -0.184998,-0.282212 -0.212493,-0.148439 -0.09517,0.463021 0.111072,0.578871 0.06261,0.859896 -0.148277,0.859896 -0.172299,0 -0.241843,0.115572 -0.154543,0.256826 0.0873,0.141255 -0.173564,0.330263 -0.579698,0.420019 -1.246022,0.27537 -1.303869,0.338905 -0.328321,0.3606 0.516599,0.01149 1.082146,-0.121987 1.256771,-0.296612 z m -1.27,-0.85751 c 0,-0.06417 -0.119063,-0.190262 -0.264583,-0.280198 -0.145521,-0.08994 -0.264584,-0.03743 -0.264584,0.116676 0,0.154109 0.119063,0.280199 0.264584,0.280199 0.14552,0 0.264583,-0.05251 0.264583,-0.116677 z m 3.704167,-5.307282 0.897555,-0.926041 h -1.515609 c -0.833585,0 -1.928504,0.172518 -2.433153,0.383374 -1.228252,0.513196 -1.173206,0.703842 0.07464,0.258519 0.545703,-0.194746 1.507338,-0.359309 2.136967,-0.365697 l 1.144779,-0.01161 -0.76152,0.640777 c -0.418836,0.352427 -1.172111,0.69056 -1.673946,0.751407 -0.896182,0.10866 -0.893331,0.111383 0.160151,0.152973 0.906549,0.03579 1.211513,-0.101002 1.970132,-0.883699 z m 18.25625,-4.630208 c 0,-0.145521 -0.05251,-0.264583 -0.116677,-0.264583 -0.06417,0 -0.190261,0.119062 -0.280198,0.264583 -0.08994,0.145521 -0.03743,0.264583 0.116677,0.264583 0.154109,0 0.280198,-0.119062 0.280198,-0.264583 z M 107.0309,64.889061 c 0.4066,-1.127786 0.79248,-2.199349 0.8575,-2.38125 0.29139,-0.815213 -5.59649,-0.05845 -8.977121,1.153821 -1.067817,0.382912 -2.298674,0.882072 -2.735236,1.109246 l -0.79375,0.413042 0.661458,0.16069 c 0.471095,0.114445 0.685552,0.367079 0.745178,0.877831 l 0.08372,0.717141 h 4.709481 4.70949 z m 12.82535,1.517923 c 0.80037,-0.177628 1.60404,-0.442695 1.78594,-0.589036 1.71867,-1.382691 -2.80688,-3.174578 -8.9592,-3.54739 l -2.80763,-0.170134 -0.15494,0.898225 c -0.0852,0.494024 -0.23657,1.59952 -0.33634,2.456658 l -0.1814,1.558433 4.59918,-0.141898 c 2.52955,-0.07804 5.25403,-0.28723 6.05439,-0.464858 z"
         id="path5" /><path
         style="fill:#999999;fill-opacity:1"
         d="m 78.689069,81.618619 c -1.14494,-0.502413 -2.412244,-2.034061 -2.76406,-3.340609 -0.726976,-2.699779 0.782958,-5.216256 3.635498,-6.058975 2.876889,-0.849912 6.152872,1.692297 6.152872,4.774714 0,1.842223 -1.547032,4.10347 -3.246748,4.745667 -0.997914,0.377039 -2.772366,0.320296 -3.777562,-0.120797 z m 4.338019,-1.453202 c 1.062462,-0.785512 1.765599,-2.549259 1.525824,-3.82737 -0.374015,-1.993675 -2.629908,-3.544836 -4.586298,-3.153558 -1.237021,0.247404 -2.652861,1.56253 -2.976621,2.76488 -0.307901,1.143457 -0.02833,2.629608 0.665301,3.536591 0.36387,0.475794 0.419169,0.479967 0.876436,0.06615 0.268435,-0.24293 0.650766,-0.44169 0.849626,-0.44169 0.198861,0 0.691983,-0.316562 1.095829,-0.70347 0.636571,-0.609874 0.756702,-0.644998 0.902908,-0.263992 0.178416,0.464946 0.0019,1.398831 -0.37293,1.972928 -0.183232,0.28065 -0.427848,0.273984 -1.32815,-0.0362 -1.286304,-0.443167 -1.713886,-0.125127 -0.642592,0.477966 1.023828,0.576372 2.934573,0.388568 3.990667,-0.392235 z m -1.185475,0.09909 c -0.229958,-0.09378 -0.238617,-0.336154 -0.03307,-0.925777 0.199066,-0.571041 0.193588,-0.98496 -0.01922,-1.452015 -0.390174,-0.856339 -0.38236,-0.892968 0.190504,-0.892968 0.268488,0 0.669907,0.208359 0.892043,0.463021 0.539121,0.61806 1.078367,1.678984 0.808813,1.591276 -0.31349,-0.102003 -1.672156,1.020201 -1.474488,1.21787 0.186807,0.186806 0.09605,0.186456 -0.364582,-0.0014 z M 77.853647,78.545913 C 77.671745,78.361619 77.527199,77.728629 77.532433,77.13927 l 0.0095,-1.071563 0.595736,0.727604 c 0.327655,0.400183 0.829389,0.729428 1.114964,0.731656 0.855885,0.0067 1.27632,0.380952 0.837264,0.745337 -0.590508,0.490078 -1.868299,0.646417 -2.236265,0.273609 z m 5.14462,-1.439876 c -0.408297,-0.3528 -1.059833,-0.641455 -1.447858,-0.641455 -0.699094,0 -0.700762,-0.0045 -0.183684,-0.497047 0.725192,-0.690768 1.83969,-0.913278 2.228407,-0.444902 0.171562,0.206719 0.274482,0.791879 0.228712,1.300356 l -0.08322,0.924502 z m 1.200618,-0.112288 c 0,-0.509323 0.05445,-0.717682 0.121,-0.463021 0.06655,0.254662 0.06655,0.67138 0,0.926042 -0.06655,0.254661 -0.121,0.0463 -0.121,-0.463021 z m -7.163358,0 c 0,-0.363802 0.06005,-0.51263 0.133452,-0.330729 0.0734,0.181901 0.0734,0.479557 0,0.661458 -0.0734,0.181901 -0.133452,0.03307 -0.133452,-0.330729 z m 3.397807,0.132292 c 0,-0.218282 0.119063,-0.396875 0.264583,-0.396875 0.145521,0 0.264584,0.178593 0.264584,0.396875 0,0.218281 -0.119063,0.396875 -0.264584,0.396875 -0.14552,0 -0.264583,-0.178594 -0.264583,-0.396875 z m -1.058333,-0.07075 c -0.541876,-0.178307 -1.316237,-0.877601 -1.638404,-1.479575 -0.195659,-0.365592 -0.184444,-0.447214 0.0422,-0.307138 0.2001,0.123668 0.279185,0.02065 0.224835,-0.292863 -0.04611,-0.265999 0.03522,-0.492159 0.180742,-0.502578 0.738983,-0.05291 1.445615,-0.458685 1.287943,-0.739585 -0.127378,-0.22693 -0.08978,-0.233466 0.138282,-0.02404 0.232305,0.21333 0.239247,0.482237 0.02687,1.040838 -0.210137,0.552702 -0.203274,0.953787 0.02578,1.506776 0.347795,0.839652 0.293631,0.989632 -0.288249,0.798161 z m 0.656293,-1.178549 c -0.08606,-0.342893 -0.03375,-0.946216 0.116235,-1.340718 0.311808,-0.820118 0.972005,-0.923304 2.117483,-0.330954 0.410886,0.212477 0.840781,0.301774 0.955322,0.198437 0.11454,-0.103337 0.122609,-0.03906 0.01793,0.142844 -0.10468,0.181901 -0.492718,0.330729 -0.862308,0.330729 -0.408761,0 -0.968937,0.317892 -1.430085,0.811552 l -0.758103,0.811552 z m 42.208096,5.722611 c -1.94601,-0.8439 -2.98073,-2.385091 -2.99866,-4.46645 -0.0288,-3.347581 3.01179,-5.765782 6.17177,-4.908386 1.51936,0.412247 3.33556,2.225888 3.59064,3.585582 0.77418,4.126714 -3.04986,7.399802 -6.76375,5.789254 z m 3.60136,-1.066351 c 1.82057,-0.863917 2.73736,-3.354158 1.85968,-5.051394 -1.05406,-2.03832 -3.09336,-2.82732 -5.05962,-1.95755 -1.54109,0.6817 -2.25309,1.833776 -2.2544,3.647826 -8e-4,1.101953 0.13828,1.534279 0.71349,2.217882 1.2728,1.512627 3.05615,1.942676 4.74085,1.143236 z m -3.16542,-0.430401 c 0.11901,-0.192676 -0.32008,-0.308659 -0.81334,-0.214841 -0.13378,0.02544 -0.0894,-0.13905 0.0985,-0.365543 0.18797,-0.226492 0.57794,-0.411803 0.8666,-0.411803 0.28866,0 0.75897,-0.297657 1.04514,-0.661459 0.67708,-0.86076 1.01558,-0.838199 0.99247,0.06615 -0.0349,1.3657 -0.35301,1.77945 -1.3707,1.78282 -0.5177,0.0017 -0.88612,-0.08618 -0.81871,-0.19532 z m 2.64585,0.151211 c -0.0987,-0.09874 -0.11068,-0.546458 -0.0266,-0.994941 0.0841,-0.448482 0.029,-1.141605 -0.12261,-1.540273 -0.23716,-0.623772 -0.20914,-0.724851 0.20091,-0.724851 0.51237,0 1.62707,1.037842 1.62707,1.514887 0,0.159586 -0.35058,0.585155 -0.77908,0.945708 -0.42849,0.360554 -0.7063,0.728325 -0.61736,0.81727 0.0889,0.08894 0.10219,0.161718 0.0294,0.161718 -0.0728,0 -0.21308,-0.08078 -0.31181,-0.179518 z m -4.03337,-1.771079 c -0.0902,-0.235187 -0.2431,-0.378781 -0.33967,-0.319097 -0.0966,0.05968 -0.13022,-0.367152 -0.0748,-0.948523 l 0.1008,-1.057038 0.7123,0.682419 c 0.39176,0.375331 0.96664,0.68242 1.27751,0.68242 1.31325,0 0.79675,0.925668 -0.68147,1.221311 -0.62623,0.125247 -0.87097,0.06091 -0.99469,-0.261492 z m 5.3885,-1.200208 c -0.21171,-0.30226 -0.76127,-0.624833 -1.22124,-0.716828 -1.3002,-0.260039 -0.94479,-0.933767 0.67526,-1.280065 0.75915,-0.162274 0.86834,-0.109116 1.02041,0.496786 0.0937,0.373178 0.28941,0.604887 0.435,0.514908 0.16674,-0.103055 0.19425,0.06897 0.0743,0.46485 -0.29546,0.975348 -0.56515,1.117996 -0.98376,0.520349 z m -2.72723,-0.03748 c -0.25141,-0.406793 0.093,-0.669255 0.43255,-0.329666 0.19002,0.190019 0.19459,0.338012 0.0139,0.449698 -0.14814,0.09156 -0.34903,0.03754 -0.44642,-0.120032 z m -1.35254,-0.263137 c -0.31185,-0.11811 -0.76264,-0.491185 -1.00176,-0.829056 -0.41959,-0.592874 -0.40297,-0.643648 0.47599,-1.454978 0.50091,-0.462367 0.83462,-0.938617 0.74159,-1.058333 -0.093,-0.119717 -0.0254,-0.09575 0.15027,0.05326 0.21464,0.182045 0.2487,0.529241 0.10382,1.058333 -0.12162,0.444157 -0.10529,1.110478 0.0375,1.528519 0.30324,0.887972 0.23443,0.983211 -0.50739,0.702257 z m 0.85955,-0.936749 c -0.27547,-0.717856 0.33228,-2.22641 0.89696,-2.22641 0.26785,0 0.7051,-0.07076 0.97167,-0.157251 0.40308,-0.130781 0.41785,-0.109195 0.0878,0.128241 -0.33704,0.242446 -0.31709,0.290825 0.13229,0.320874 0.29104,0.01946 0.59862,0.0279 0.68351,0.01875 0.0849,-0.0091 0.15434,0.155346 0.15434,0.365542 0,0.210197 -0.24238,0.382176 -0.53862,0.382176 -0.29624,0 -0.91542,0.365213 -1.37596,0.811583 -0.72984,0.707391 -0.85976,0.753158 -1.01197,0.356494 z m -52.48161,2.53899 c -1.00095,-0.610291 -0.981463,-0.530299 -0.437857,-1.797336 0.400673,-0.933889 0.433728,-0.953551 0.652932,-0.388377 0.143742,0.37061 0.453821,0.595313 0.821503,0.595313 0.826151,0 0.286027,0.460241 -0.705849,0.601456 -0.655909,0.09338 -0.605596,0.119892 0.289722,0.152651 0.758156,0.02774 1.217534,-0.108494 1.529969,-0.453731 0.419349,-0.463375 0.416892,-0.571963 -0.04041,-1.785937 -0.482372,-1.280525 -0.733166,-1.431174 -1.713134,-1.029065 -0.38967,0.159893 -0.463021,0.04128 -0.463021,-0.748743 0,-0.516304 0.108934,-1.006059 0.242075,-1.088345 0.133141,-0.08229 0.958883,-0.224532 1.83498,-0.316102 1.349426,-0.141043 1.72478,-0.302552 2.455661,-1.05663 0.563602,-0.581489 0.730081,-0.898645 0.480124,-0.914674 -1.218087,-0.07811 -2.875873,0.119503 -3.623678,0.431956 -0.472997,0.197631 -0.859995,0.26092 -0.859995,0.140643 0,-1.308321 8.13948,-3.05838 16.801041,-3.612371 2.219629,-0.141967 2.816316,-0.279074 3.704167,-0.851149 4.045795,-2.606852 7.861322,-4.226536 11.1125,-4.717233 2.83136,-0.427336 10.10114,-0.475584 13.01158,-0.08636 2.26116,0.302396 7.04827,1.794719 11.57397,3.608044 2.24818,0.900785 3.50646,1.23041 5.66782,1.484763 1.80326,0.212211 2.81837,0.447721 2.89285,0.67115 0.0631,0.18932 -0.128,0.407694 -0.42468,0.485277 -0.3643,0.09527 -0.75986,0.69174 -1.2185,1.837387 -0.37349,0.932979 -0.67908,1.754605 -0.67908,1.825834 0,0.07123 0.59531,0.129508 1.32291,0.129508 0.96492,0 1.32292,0.101428 1.32292,0.374807 0,0.206144 0.32742,0.619091 0.72761,0.91766 0.56344,0.420378 0.62314,0.544744 0.26458,0.551235 -0.56245,0.01018 -0.62776,0.802132 -0.0661,0.802132 0.70576,0 0.43707,1.18097 -0.46302,2.035143 -1.18582,1.125335 -2.22282,1.599648 -4.19802,1.920144 -2.68009,0.434869 -2.615,0.460074 -2.615,-1.012559 0,-3.447948 -2.56707,-5.964953 -6.08542,-5.966735 -1.87756,-9.51e-4 -2.839,0.378924 -4.06699,1.606909 -1.24938,1.249383 -1.75384,2.529125 -1.75384,4.449265 v 1.730333 h -15.875 -15.874998 l -0.0015,-1.521355 c -0.0021,-2.193096 -0.422886,-3.403853 -1.642835,-4.727341 -2.792065,-3.029032 -7.556927,-2.219987 -9.532065,1.618487 -0.322429,0.626608 -0.596875,1.78687 -0.672778,2.844271 l -0.128199,1.785938 -1.353511,-9.89e-4 C 72.305699,79.108782 71.53494,78.925868 70.97448,78.584149 Z m 22.688021,-11.90915 c 0,-0.145521 -0.05251,-0.264583 -0.116677,-0.264583 -0.06417,0 -0.190261,0.119062 -0.280198,0.264583 -0.08994,0.145521 -0.03743,0.264583 0.116677,0.264583 0.154109,0 0.280198,-0.119062 0.280198,-0.264583 z m 13.117869,-0.992188 c 0.2539,-0.691224 0.62093,-1.658264 0.81563,-2.148978 0.51914,-1.30843 0.48209,-1.356935 -1.03506,-1.354752 -2.92443,0.0042 -7.525193,1.121668 -10.120314,2.45808 -1.023541,0.527093 -1.036588,0.550322 -0.396875,0.706575 0.470808,0.114997 0.685589,0.368263 0.745178,0.878705 l 0.08372,0.717141 h 4.723041 4.72304 z m 11.49328,0.975902 c 2.75142,-0.344999 3.56698,-0.699127 3.56698,-1.54884 0,-1.297661 -4.01018,-2.560452 -9.03182,-2.844087 -3.39519,-0.191768 -3.11691,-0.416547 -3.41147,2.755567 l -0.17813,1.918229 h 3.40723 c 1.87398,0 4.41522,-0.126391 5.64721,-0.280869 z m -46.836149,9.044516 c 0,-0.418744 0.178582,-0.909563 0.396848,-1.090708 0.33413,-0.277303 0.459576,-0.179228 0.79375,0.620563 0.519855,1.244188 0.523944,1.231498 -0.396848,1.231498 -0.69805,0 -0.79375,-0.09179 -0.79375,-0.761353 z M 71.326603,71.87403 c 0.224996,-0.58633 1.226561,-1.009912 2.722956,-1.151591 l 1.488983,-0.140978 -0.661458,0.661459 c -0.497349,0.497349 -1.03487,0.696847 -2.166528,0.804096 -1.103813,0.10461 -1.472779,0.05849 -1.383953,-0.172986 z m 63.490807,-1.944697 c 0.79442,-1.796332 0.77722,-1.775877 1.31886,-1.568029 0.60876,0.233604 0.36426,1.075666 -0.34158,1.176368 -0.73502,0.104865 -0.78693,0.57691 -0.0634,0.57691 0.38806,0 0.52917,0.176389 0.52917,0.661459 0,0.594963 -0.10606,0.661458 -1.055,0.661458 h -1.055 z"
         id="path4" /><path
         style="fill:#999999;fill-opacity:1"
         d="m 78.847723,81.599355 c -1.946013,-0.8439 -2.98073,-2.385091 -2.998662,-4.46645 -0.03636,-4.220476 4.570795,-6.50006 7.957989,-3.937549 2.877098,2.176609 2.259304,6.795955 -1.113812,8.328149 -1.293616,0.587608 -2.605734,0.613489 -3.845515,0.07585 z m 4.227575,-1.427851 c 1.597519,-1.137534 2.059245,-3.470382 0.996057,-5.032529 -0.965669,-1.418862 -1.923767,-1.981684 -3.373438,-1.981684 -2.973442,0 -4.875916,3.2567 -3.384279,5.79329 1.193558,2.029694 3.838678,2.590207 5.76166,1.220923 z m -3.804562,-0.0481 c 0.07579,-0.122634 -0.04765,-0.294138 -0.274321,-0.381119 -0.502401,-0.19279 -0.2845,-0.631865 0.313577,-0.631865 0.238111,0 0.763347,-0.316562 1.167193,-0.70347 0.627429,-0.601116 0.758281,-0.640883 0.899331,-0.273312 0.09079,0.236587 0.05476,0.761078 -0.08006,1.165535 -0.19102,0.573059 -0.456846,0.76979 -1.204326,0.891289 -0.52756,0.08575 -0.897188,0.05558 -0.821396,-0.06706 z m 2.640276,-0.876023 c 0.09066,-0.361233 0.0396,-1.016077 -0.113487,-1.455208 -0.245322,-0.703731 -0.219343,-0.79842 0.219056,-0.79842 0.273563,0 0.741873,0.34335 1.040691,0.763 l 0.543304,0.763 -0.544491,0.692208 c -0.715385,0.909465 -1.369522,0.929699 -1.145073,0.03542 z M 77.805898,78.351045 C 77.650259,78.060231 77.522917,77.44122 77.522917,76.975466 V 76.12864 l 0.524523,0.666823 c 0.305809,0.388773 0.928294,0.742571 1.492854,0.848483 0.815737,0.153033 0.91028,0.237011 0.599956,0.532908 -0.202606,0.193187 -0.747049,0.430381 -1.209873,0.527098 -0.678726,0.141833 -0.896235,0.07357 -1.124479,-0.352907 z m 5.341165,-1.200038 c -0.344514,-0.39841 -0.871833,-0.686421 -1.256771,-0.686421 -1.172737,0 -0.660589,-0.828097 0.71527,-1.156526 0.865114,-0.20651 1.344264,0.471779 1.217061,1.722881 l -0.082,0.806487 z m -2.713729,-0.157254 c 0,-0.145521 0.119063,-0.264583 0.264583,-0.264583 0.145521,0 0.264584,0.119062 0.264584,0.264583 0,0.145521 -0.119063,0.264583 -0.264584,0.264583 -0.14552,0 -0.264583,-0.119062 -0.264583,-0.264583 z m -2.098818,-0.698862 c -0.575728,-0.73192 -0.485313,-1.063016 0.511318,-1.872411 0.638378,-0.518447 0.84726,-0.391342 0.671554,0.408642 -0.09033,0.411282 -0.04321,1.066125 0.10472,1.455208 0.233143,0.613211 0.20192,0.707423 -0.234452,0.707423 -0.276878,0 -0.750791,-0.314488 -1.05314,-0.698862 z m 1.686554,-0.407959 c -0.09072,-0.285829 -0.02063,-0.868099 0.15576,-1.293934 0.384054,-0.92719 1.218657,-1.025953 2.145422,-0.253881 l 0.624624,0.520364 -0.615665,0.0088 c -0.338616,0.0048 -0.95981,0.352947 -1.380432,0.773569 -0.717016,0.717015 -0.775066,0.732318 -0.929709,0.245079 z m 42.00575,5.570821 c -1.62531,-0.804508 -2.50049,-2.064897 -2.64515,-3.809408 -0.15444,-1.862248 0.0436,-2.563334 1.04685,-3.705964 1.47268,-1.677292 3.143,-2.17961 5.20828,-1.56629 3.42001,1.015635 4.5736,5.272551 2.14331,7.909108 -1.61726,1.754522 -3.71419,2.181887 -5.75329,1.172554 z m 3.90957,-0.958682 c 2.92536,-1.469749 2.81299,-5.671656 -0.18716,-6.998764 -3.03042,-1.3405 -6.22697,1.34624 -5.37335,4.516361 0.28591,1.061804 1.34182,2.322447 2.2585,2.696414 0.8945,0.36492 2.33563,0.271517 3.30201,-0.214011 z m -3.37646,-0.684173 c -0.69036,-0.383264 -0.51845,-0.704478 0.37703,-0.704478 0.36005,0 0.78938,-0.271843 1.04466,-0.661459 0.55621,-0.848882 0.90171,-0.842217 0.90171,0.01739 0,1.545216 -0.96267,2.10397 -2.3234,1.348543 z m 2.69309,-1.269524 c -0.0242,-1.779815 0.34743,-1.978966 1.30276,-0.698175 0.5305,0.711217 0.53093,0.728871 0.031,1.281277 -1.09766,1.212894 -1.31063,1.119786 -1.33377,-0.583102 z m -4.06825,-0.346267 c -0.54425,-1.431487 -0.12008,-2.408015 0.52356,-1.205354 0.15577,0.291042 0.54691,0.53099 0.86921,0.533218 0.3223,0.0022 0.74047,0.102035 0.92926,0.221793 0.46998,0.298131 -0.114,0.773408 -1.22277,0.995162 -0.72619,0.145239 -0.86261,0.07763 -1.09926,-0.544819 z m 5.36166,-1.139208 c -0.32222,-0.327422 -0.88776,-0.595313 -1.25677,-0.595313 -1.20178,0 -0.64216,-0.873329 0.71647,-1.118108 0.92153,-0.166027 1.31638,0.300974 1.20938,1.430373 l -0.0832,0.87836 z m -2.72143,-0.06615 c 0,-0.145521 0.11906,-0.264583 0.26458,-0.264583 0.14553,0 0.26459,0.119062 0.26459,0.264583 0,0.145521 -0.11906,0.264583 -0.26459,0.264583 -0.14552,0 -0.26458,-0.119062 -0.26458,-0.264583 z m -1.95394,-0.65215 c -0.55854,-0.85244 -0.54236,-0.999605 0.18506,-1.68298 0.84944,-0.798012 1.29628,-0.758525 0.97513,0.08617 -0.16031,0.421655 -0.15794,0.907505 0.007,1.340141 0.34084,0.896483 0.33758,0.908817 -0.2407,0.908817 -0.27431,0 -0.69103,-0.293467 -0.92604,-0.65215 z m 1.61958,-0.379871 c -0.0851,-0.325358 -0.033,-0.940629 0.11571,-1.36727 0.31418,-0.901246 0.89533,-0.990441 2.15002,-0.329986 l 0.84676,0.445723 -0.89522,0.189542 c -0.49771,0.105379 -1.15439,0.514581 -1.4789,0.921547 -0.58091,0.728533 -0.58441,0.729199 -0.73837,0.140444 z m -52.51616,2.589081 c -0.993389,-0.636183 -0.988609,-0.612393 -0.360067,-1.792091 0.436868,-0.81995 0.490279,-0.848187 0.625598,-0.330729 0.09394,0.359224 0.374316,0.578475 0.768032,0.60059 0.454345,0.02552 0.387464,0.07856 -0.250225,0.198437 -1.100694,0.206918 -1.229663,0.635695 -0.204702,0.680563 0.443876,0.01943 1.043562,-0.197557 1.398567,-0.506053 0.615835,-0.535153 0.617504,-0.551696 0.183246,-1.817372 -0.465493,-1.356715 -0.945935,-1.75013 -1.537607,-1.259086 -0.396055,0.328696 -0.688988,-0.108721 -0.688988,-1.028818 0,-0.575533 0.401099,-0.749647 2.219176,-0.963326 1.52211,-0.178894 3.314001,-1.348934 2.955133,-1.929594 -0.248122,-0.40147 -2.856369,-0.12636 -3.917538,0.413211 -0.469646,0.2388 -0.727604,0.268562 -0.727604,0.08395 0,-0.487558 2.706585,-1.554859 5.315262,-2.095994 2.807518,-0.582381 7.866803,-1.230718 11.618071,-1.488831 2.353835,-0.161961 2.63122,-0.24473 4.365625,-1.302661 4.370569,-2.665905 7.705561,-3.961994 11.235671,-4.366549 2.91706,-0.3343 8.48785,-0.331136 11.5185,0.0065 2.43569,0.271387 8.44218,2.083948 12.35955,3.729705 2.34843,0.98662 3.42777,1.249909 6.13986,1.497723 2.13483,0.195068 2.86929,0.648408 1.73206,1.069097 -0.37772,0.13973 -0.80424,0.760251 -1.21278,1.764408 -0.34658,0.851884 -0.63015,1.647716 -0.63015,1.768517 0,0.1208 0.59531,0.219637 1.32291,0.219637 0.97644,0 1.32292,0.100015 1.32292,0.381872 0,0.21003 0.26271,0.565881 0.5838,0.79078 0.57584,0.403333 0.57674,0.414301 0.0661,0.804405 -0.50862,0.388596 -0.50727,0.398419 0.0777,0.562995 1.30936,0.368407 0.20093,2.252413 -1.98795,3.378928 -0.60599,0.311876 -3.85341,0.960187 -4.80961,0.960187 -0.16071,0 -0.28252,-0.591934 -0.28586,-1.389063 -0.014,-3.359073 -2.75112,-6.01927 -6.19321,-6.01927 -1.53183,0 -3.72203,1.143742 -4.65408,2.430389 -0.86589,1.19533 -1.40266,3.330147 -1.16109,4.617834 l 0.16683,0.889277 H 102.45719 86.586741 l -0.121946,-2.106538 c -0.100682,-1.739232 -0.256957,-2.324914 -0.896252,-3.358949 -1.362975,-2.204562 -4.160585,-3.190723 -6.678829,-2.354297 -2.608857,0.866524 -4.277213,3.367454 -4.277213,6.411708 v 1.408076 l -1.389063,-0.0045 c -0.949393,-0.003 -1.661239,-0.178764 -2.248958,-0.555149 z m 22.688021,-11.87581 c 0,-0.145521 -0.112036,-0.264583 -0.248969,-0.264583 -0.136932,0 -0.322553,0.119062 -0.412489,0.264583 -0.08994,0.145521 0.0221,0.264583 0.248968,0.264583 0.226869,0 0.41249,-0.119062 0.41249,-0.264583 z m 13.474519,-1.843548 c 0.44714,-1.159472 0.81298,-2.248528 0.81298,-2.420124 0,-0.467443 -4.44284,-0.119152 -7.01146,0.549655 -1.164164,0.303121 -2.89057,0.922228 -3.836456,1.375792 -1.551982,0.744195 -1.655249,0.841438 -1.058333,0.996594 0.467403,0.121492 0.68602,0.382324 0.745178,0.889073 l 0.08372,0.717141 h 4.725691 4.7257 z m 11.50203,1.83378 c 2.40295,-0.347338 3.20158,-0.741787 3.20158,-1.581297 0,-1.344657 -3.80237,-2.533051 -9.02325,-2.820131 -1.65379,-0.09094 -3.0022,-0.05738 -3.08511,0.07678 -0.081,0.131076 -0.23288,1.219473 -0.33749,2.41866 l -0.19019,2.18034 3.80448,-0.0052 c 2.09246,-0.0029 4.62595,-0.123982 5.62998,-0.26911 z m -47.201549,9.291824 c 0,-1.473594 0.845402,-1.806873 1.297033,-0.511324 0.159757,0.458277 0.290467,0.874996 0.290467,0.926042 0,0.05105 -0.357188,0.09281 -0.79375,0.09281 -0.60608,0 -0.79375,-0.119997 -0.79375,-0.507528 z m -3.61e-4,-4.146357 c 5.34e-4,-0.426813 1.250627,-0.91971 2.766131,-1.090651 l 1.335271,-0.150613 -0.61976,0.675546 c -0.488657,0.532642 -0.922497,0.694419 -2.050882,0.764762 -0.91079,0.05678 -1.43099,-0.01559 -1.43076,-0.199044 z m 63.4356,-1.970909 c 0.47545,-1.101919 0.81825,-1.572891 1.10467,-1.51773 0.65936,0.12698 0.51272,1.117229 -0.18001,1.215613 -0.73701,0.104671 -0.79115,0.57691 -0.0662,0.57691 0.38806,0 0.52917,0.176389 0.52917,0.661459 0,0.59321 -0.10716,0.661458 -1.03853,0.661458 h -1.03853 z"
         id="path3" /><path
         style="fill:#999999;fill-opacity:1"
         d="m 79.319798,81.772885 c -3.804198,-1.218778 -4.636985,-6.492716 -1.377872,-8.725896 1.737854,-1.190796 4.671769,-0.992576 6.074767,0.410422 1.589227,1.589227 2.030083,4.203257 1.004916,5.958585 -1.078343,1.846379 -3.792897,2.968461 -5.701811,2.356889 z m 3.431059,-1.338124 c 1.87461,-1.142963 2.435856,-3.444774 1.316145,-5.397844 -1.515924,-2.644172 -5.145459,-2.663725 -6.6854,-0.03601 -1.625443,2.773609 0.147458,5.959618 3.316315,5.959618 0.722364,0 1.529766,-0.206776 2.05294,-0.52576 z M 79.30329,79.879859 c -0.561331,-0.326794 -0.362392,-0.769443 0.34581,-0.769443 0.279098,0 0.708599,-0.306991 0.954447,-0.682201 0.392106,-0.59843 0.47703,-0.62853 0.691596,-0.245122 0.157587,0.281594 0.130509,0.712521 -0.07612,1.211367 -0.339263,0.819052 -1.038357,0.996185 -1.915733,0.485399 z m 2.550867,-1.431376 c -0.01891,-0.800104 0.06557,-1.454734 0.18773,-1.454734 0.122163,0 0.517559,0.318622 0.878656,0.708049 0.503129,0.542603 0.59695,0.819393 0.401518,1.184561 -0.211883,0.395907 -1.038844,1.019098 -1.349979,1.017332 -0.04595,-2.6e-4 -0.09901,-0.655104 -0.117925,-1.455208 z m -4.061445,-0.12208 c -0.148387,-0.277264 -0.269795,-0.830354 -0.269795,-1.229089 v -0.724973 l 0.595313,0.541611 c 0.327422,0.297886 0.918919,0.646062 1.314438,0.773725 0.891591,0.287781 0.647399,0.750417 -0.515477,0.976601 -0.676146,0.131514 -0.911043,0.06093 -1.124479,-0.337875 z m 5.444485,-1.200362 c -0.332843,-0.443218 -0.75367,-0.661459 -1.275472,-0.661459 -1.038304,0 -0.83743,-0.567627 0.343565,-0.970842 0.765267,-0.261278 0.957595,-0.243129 1.236898,0.116715 0.273425,0.352271 0.49239,2.177044 0.261236,2.177044 -0.03822,0 -0.293023,-0.297656 -0.566227,-0.661458 z m -2.803863,-0.132292 c 0,-0.145521 0.119063,-0.264583 0.264583,-0.264583 0.145521,0 0.264584,0.119062 0.264584,0.264583 0,0.145521 -0.119063,0.264583 -0.264584,0.264583 -0.14552,0 -0.264583,-0.119062 -0.264583,-0.264583 z m -1.969372,-0.588038 c -0.553111,-0.789677 -0.521027,-1.069264 0.200487,-1.747092 0.844979,-0.793816 1.026846,-0.723116 0.830613,0.322895 -0.09441,0.503245 -0.03742,1.14311 0.129612,1.455208 0.25639,0.47907 0.22485,0.557027 -0.225361,0.557027 -0.28791,0 -0.708818,-0.264617 -0.935351,-0.588038 z m 1.618249,-0.578767 c -0.08564,-0.223182 -0.02594,-0.778062 0.132678,-1.233068 0.260461,-0.747158 0.367947,-0.811373 1.109771,-0.663008 0.451758,0.09035 0.997315,0.340212 1.212348,0.555245 0.344903,0.344903 0.315852,0.390969 -0.246562,0.390969 -0.350642,0 -0.955904,0.305021 -1.345026,0.677823 -0.582504,0.558074 -0.735005,0.606134 -0.863209,0.272039 z m 42.552169,5.870691 c -1.34505,-0.476882 -2.17866,-1.21659 -2.78684,-2.472931 -1.17412,-2.4254 -0.23457,-5.293191 2.14419,-6.544737 1.38556,-0.728988 3.85885,-0.518225 5.10908,0.435372 2.97263,2.267334 2.4192,6.847815 -1.0159,8.408166 -1.19138,0.541167 -2.2628,0.595236 -3.45053,0.17413 z m 4.29507,-1.864025 c 0.80289,-0.802892 0.96828,-1.171392 1.06858,-2.38078 0.13926,-1.679375 -0.31939,-2.774047 -1.52069,-3.629448 -1.68086,-1.196882 -3.87369,-0.925147 -5.25808,0.651581 -1.13278,1.290171 -1.31073,2.738371 -0.52762,4.294009 0.82079,1.630487 1.97847,2.26315 3.87989,2.120323 1.19198,-0.08954 1.55373,-0.2515 2.35792,-1.055685 z m -4.23449,0.04625 c -0.54925,-0.319757 -0.36755,-0.769443 0.3109,-0.769443 0.2599,0 0.68804,-0.238125 0.95143,-0.529167 0.6134,-0.677798 0.92604,-0.671925 0.92604,0.01739 0,1.353606 -1.02911,1.956113 -2.18837,1.281216 z m 2.45296,-0.125379 c 0,-0.08233 0.11961,-0.37318 0.2658,-0.646338 0.18326,-0.342423 0.16991,-0.707103 -0.043,-1.174349 -0.16983,-0.372734 -0.24695,-0.739528 -0.17138,-0.815099 0.24674,-0.246736 0.9664,0.170723 1.37847,0.799616 0.36972,0.564266 0.35842,0.672624 -0.13563,1.300701 -0.47576,0.60483 -1.29428,0.943469 -1.29428,0.535469 z m -3.9379,-1.727633 c -0.48735,-1.397998 -0.39352,-1.744589 0.29988,-1.107784 0.32742,0.300697 0.99543,0.631459 1.48446,0.735026 0.73925,0.156559 0.82845,0.246102 0.52916,0.531157 -0.19799,0.188569 -0.73305,0.420754 -1.18902,0.515967 -0.7564,0.157943 -0.85494,0.09885 -1.12448,-0.674366 z m 5.41825,-1.003881 c -0.28811,-0.31917 -0.82651,-0.558384 -1.25678,-0.558384 -0.86733,0 -0.98584,-0.385794 -0.24097,-0.784441 0.93599,-0.500922 1.84377,-0.336168 2.02016,0.366639 0.0884,0.352292 0.12046,0.84169 0.0712,1.08755 -0.079,0.394134 -0.14921,0.380959 -0.5936,-0.111364 z m -2.80327,-0.02922 c 0,-0.145521 0.11906,-0.264583 0.26458,-0.264583 0.14553,0 0.26459,0.119062 0.26459,0.264583 0,0.145521 -0.11906,0.264583 -0.26459,0.264583 -0.14552,0 -0.26458,-0.119062 -0.26458,-0.264583 z m -1.95914,-0.707634 c -0.56075,-0.768918 -0.41508,-1.217935 0.61758,-1.903593 0.60393,-0.400994 0.61085,-0.394756 0.4375,0.394472 -0.0969,0.44105 -0.0551,1.120249 0.0928,1.509332 0.22744,0.598236 0.1985,0.70614 -0.18751,0.699108 -0.25106,-0.0046 -0.68325,-0.319266 -0.96041,-0.699319 z m 1.69817,-0.631927 c 0.002,-0.354648 0.0784,-0.924209 0.16984,-1.265691 0.14268,-0.532955 0.28217,-0.597686 0.98503,-0.457115 0.45034,0.09007 0.99474,0.339698 1.20978,0.554731 0.3449,0.344903 0.31585,0.390969 -0.24657,0.390969 -0.35064,0 -0.97147,0.319932 -1.37961,0.71096 l -0.74208,0.710959 z m -52.456786,2.969017 c -0.806791,-0.486907 -0.908372,-1.148968 -0.331202,-2.158623 0.364269,-0.637221 0.378468,-0.640289 0.3875,-0.08372 0.0069,0.424026 0.20296,0.607064 0.736979,0.687961 0.571802,0.08662 0.510426,0.118712 -0.286632,0.149866 -1.292556,0.05052 -1.185484,0.667859 0.135436,0.780873 0.76045,0.06506 1.015798,-0.04754 1.384772,-0.610671 0.422713,-0.645141 0.4239,-0.776233 0.01809,-1.998 -0.436455,-1.314043 -0.989876,-1.661957 -1.628229,-1.023604 -0.202218,0.202218 -0.334971,0.08069 -0.461184,-0.422183 -0.26437,-1.053333 0.227946,-1.449272 1.802044,-1.449272 1.130715,0 1.530336,-0.138321 2.348853,-0.813012 0.542479,-0.447157 0.986326,-0.982939 0.986326,-1.190625 0,-0.48737 -1.282715,-0.495391 -3.11734,-0.0195 -1.606223,0.416649 -1.823507,0.174322 -0.38839,-0.433152 2.826033,-1.196239 8.247142,-2.111669 16.039229,-2.70845 2.141173,-0.163988 2.489287,-0.272078 3.96875,-1.232308 2.042412,-1.325605 5.341068,-2.919222 7.574834,-3.659485 2.51823,-0.834533 9.0035,-1.234726 13.71745,-0.846477 4.03707,0.3325 6.80979,1.092082 13.31506,3.647646 3.15032,1.237589 3.94384,1.443856 6.15156,1.599044 1.39408,0.09799 2.53468,0.29034 2.53468,0.427436 0,0.137096 -0.22134,0.446945 -0.49188,0.688552 -0.52649,0.470195 -1.62478,2.906778 -1.62478,3.604619 0,0.34273 0.20993,0.39361 1.12448,0.272537 1.04231,-0.137987 1.17701,-0.08236 1.84342,0.761334 0.57581,0.728981 0.64166,0.93986 0.33073,1.059173 -0.56972,0.218625 -0.47313,0.694748 0.14095,0.694748 0.3862,0 0.52917,0.176388 0.52917,0.652887 0,0.479947 -0.37658,0.937206 -1.42167,1.726259 -1.19438,0.901766 -1.77602,1.135732 -3.63802,1.463418 -1.219,0.214525 -2.30565,0.390208 -2.41479,0.390407 -0.10914,1.99e-4 -0.19844,-0.659225 -0.19844,-1.465387 0,-4.9284 -5.69954,-7.688835 -9.71754,-4.706454 -1.37559,1.021041 -2.19335,2.685375 -2.37314,4.829877 l -0.1569,1.871493 H 102.22308 86.518751 l -0.0015,-1.653646 c -0.0028,-3.173149 -0.915986,-4.814388 -3.295004,-5.922203 -4.172801,-1.94311 -8.599653,1.1028 -8.607186,5.922203 l -0.0026,1.653646 -1.389063,-0.02419 c -0.78456,-0.01366 -1.705501,-0.215164 -2.116194,-0.463021 z M 93.772713,66.769421 c 0.09176,-0.239109 0.107371,-0.494201 0.0347,-0.56687 -0.210629,-0.210629 -0.948242,0.507479 -0.787843,0.76701 0.227035,0.367352 0.570388,0.276109 0.753143,-0.20014 z M 106.5364,66.410416 c 0.55963,-1.135923 1.6318,-4.095809 1.52405,-4.207405 -0.0565,-0.0585 -0.96355,-0.08123 -2.01571,-0.0505 -3.06426,0.08947 -6.279077,0.884365 -9.471822,2.341992 -1.305908,0.596203 -1.389914,0.681681 -0.818791,0.833138 0.627211,0.16633 0.90466,0.497164 1.190679,1.419781 0.133094,0.429324 0.533868,0.463126 4.705594,0.396875 l 4.56012,-0.07242 z m 12.30923,0.254297 c 2.49066,-0.357041 3.12729,-0.641507 3.12729,-1.397367 0,-0.34485 -0.20836,-0.81163 -0.46302,-1.03729 -1.1541,-1.022661 -5.91497,-2.052861 -9.48722,-2.052928 l -2.40962,-4.6e-5 -0.24437,2.395149 c -0.1344,1.317332 -0.21901,2.420504 -0.18802,2.451494 0.15663,0.15663 8.13541,-0.139748 9.66496,-0.359012 z m -47.285132,9.520248 c -0.275656,-0.446021 0.113684,-1.572462 0.543502,-1.572462 0.215509,0 0.391834,0.03055 0.391834,0.06789 0,0.03734 0.110751,0.45406 0.246114,0.926042 0.228213,0.795734 0.200483,0.858149 -0.38126,0.858149 -0.345056,0 -0.705141,-0.125829 -0.80019,-0.279621 z m 0.179952,-4.634637 c 0.433738,-0.433739 2.011133,-0.889385 3.116609,-0.900263 l 0.641433,-0.0063 -0.621408,0.661458 c -0.517805,0.551179 -0.865787,0.661459 -2.087192,0.661459 -1.33338,0 -1.428176,-0.03761 -1.049442,-0.416342 z m 62.66788,-0.204809 c 0,-0.06903 0.25465,-0.79095 0.56589,-1.604264 0.52357,-1.368176 1.04117,-1.824682 1.40373,-1.238045 0.25905,0.419141 -0.15453,1.08221 -0.67501,1.08221 -0.27547,0 -0.50086,0.119062 -0.50086,0.264583 0,0.145521 0.24641,0.264583 0.54757,0.264583 0.41651,0 0.52734,0.142485 0.46302,0.595313 -0.0648,0.456274 -0.28538,0.614676 -0.94444,0.678222 -0.47294,0.0456 -0.8599,0.02643 -0.8599,-0.0426 z"
         id="path2" /><path
         style="fill:#999999;fill-opacity:1"
         d="m 79.375001,81.491666 c 0,-0.145521 0.238125,-0.264584 0.529166,-0.264584 0.291042,0 0.529167,0.119063 0.529167,0.264584 0,0.14552 -0.238125,0.264583 -0.529167,0.264583 -0.291041,0 -0.529166,-0.119063 -0.529166,-0.264583 z m 1.477317,-0.03577 c 0.06394,-0.103454 0.501839,-0.272375 0.973113,-0.375379 0.471274,-0.103004 1.100446,-0.44926 1.398161,-0.769457 0.405681,-0.436317 0.613183,-0.505224 0.828214,-0.275033 0.21176,0.22669 -0.01801,0.491326 -0.877198,1.010292 -1.032589,0.623707 -2.628596,0.905191 -2.32229,0.409577 z M 121.63746,81.085252 C 121.0602,80.692995 120.65,80.198396 120.65,79.894627 c 0,-0.285795 -0.15975,-0.519628 -0.35499,-0.519628 -0.66076,0 -1.23667,-2.870489 -0.73479,-3.662349 0.28559,-0.450586 0.54487,0.757853 0.42933,2.00098 -0.0517,0.556593 0.0192,0.804571 0.19856,0.693748 0.15349,-0.09486 0.20673,-0.05543 0.11832,0.08763 -0.0884,0.143054 0.17787,0.630837 0.59173,1.083961 0.41387,0.453125 0.69742,0.878928 0.63012,0.946229 -0.0673,0.0673 0.24333,0.202687 0.6903,0.300858 0.44697,0.09817 0.81267,0.347626 0.81267,0.554344 0,0.528589 -0.26375,0.472738 -1.39379,-0.295144 z m 1.65837,0.406414 c 0,-0.145521 0.11907,-0.264584 0.26459,-0.264584 0.14552,0 0.26458,0.119063 0.26458,0.264584 0,0.14552 -0.11906,0.264583 -0.26458,0.264583 -0.14552,0 -0.26459,-0.119063 -0.26459,-0.264583 z m 1.39687,-0.08736 c 0.0994,-0.296068 0.24902,-0.342314 1.33073,-0.411289 0.2905,-0.01852 0.40443,-0.150588 0.28985,-0.335983 -0.11697,-0.189256 -0.0726,-0.233643 0.11667,-0.116677 0.46748,0.288914 0.36343,0.686724 -0.1796,0.686724 -0.26679,0 -0.56789,0.08282 -0.66912,0.184047 -0.32083,0.320835 -0.99678,0.315644 -0.88853,-0.0068 z M 77.853647,81.051854 c -0.181902,-0.0734 -0.33073,-0.309151 -0.33073,-0.523894 0,-0.214742 -0.105092,-0.32549 -0.233538,-0.246106 -0.128446,0.07938 -0.495975,-0.465718 -0.816732,-1.211338 -0.3757,-0.873337 -0.485851,-1.415833 -0.309595,-1.524765 0.174182,-0.10765 0.184005,-0.310768 0.02703,-0.558985 -0.353134,-0.558407 -0.311858,-0.786767 0.142206,-0.786767 0.296569,0 0.397788,0.317636 0.400488,1.256771 0.0052,1.803678 0.195882,2.289409 1.04667,2.666004 1.20251,0.532283 1.272823,1.412736 0.0742,0.92908 z m 1.405312,-1.438565 c 0.06289,-0.101763 0.514522,-0.421131 1.00362,-0.709705 l 0.88927,-0.524682 -0.06091,0.564194 c -0.0335,0.310307 -0.0761,0.657221 -0.09467,0.77092 -0.01857,0.113699 -0.442793,0.17918 -0.942714,0.145512 -0.49992,-0.03367 -0.857488,-0.144475 -0.794596,-0.246239 z m 2.68413,-0.185619 c 0.08794,-0.24725 0.262524,-0.583283 0.387966,-0.74674 0.125441,-0.163456 0.153752,-0.490878 0.06291,-0.727604 -0.09434,-0.245836 -0.03287,-0.43041 0.143342,-0.43041 0.169678,0 0.234921,0.119062 0.144984,0.264583 -0.08994,0.145521 0.0221,0.264583 0.248969,0.264583 0.463072,0 0.514035,0.223761 0.173436,0.761502 -0.127023,0.200544 -0.361961,0.283657 -0.522084,0.184695 -0.177382,-0.109628 -0.234688,-0.03283 -0.146668,0.196544 0.07946,0.207061 -0.03491,0.445306 -0.254139,0.529434 -0.28824,0.110608 -0.354336,0.02849 -0.238716,-0.296587 z m 43.754021,-0.251109 c 0.35279,-0.400182 0.6712,-0.777213 0.70758,-0.837847 0.0364,-0.06063 0.0661,0.154753 0.0661,0.478636 0,0.327965 -0.11805,0.515916 -0.26645,0.424202 -0.14655,-0.09057 -0.33788,0.02146 -0.42518,0.248969 -0.0873,0.227504 -0.28581,0.413645 -0.44113,0.413645 -0.15531,0 0.006,-0.327422 0.35904,-0.727605 z m -1.73805,0.201296 c -0.10835,-0.17532 -0.004,-0.510502 0.23151,-0.746403 0.35702,-0.357016 0.42751,-0.36379 0.42413,-0.04076 -0.007,0.653538 -0.42669,1.157612 -0.65564,0.787159 z m 3.9487,-0.03244 c -0.1,-0.161791 -0.056,-0.371888 0.0977,-0.466883 0.1537,-0.09499 0.26926,-0.349574 0.2568,-0.565731 -0.0125,-0.216157 0.007,-1.107388 0.0429,-1.980513 0.0636,-1.541703 0.0732,-1.560785 0.33212,-0.661459 0.31388,1.090334 0.12923,3.247642 -0.28993,3.387362 -0.16074,0.05358 -0.22495,0.206311 -0.1427,0.339403 0.0823,0.133092 0.09,0.241985 0.0173,0.241985 -0.0728,0 -0.21411,-0.132374 -0.3141,-0.294164 z M 72.679945,78.655502 c 0.601984,-0.07521 0.8036,-0.215013 0.69988,-0.485304 -0.08013,-0.208813 -0.282042,-0.311741 -0.448695,-0.22873 -0.166652,0.08301 -0.06488,-0.0665 0.226162,-0.332249 0.388679,-0.3549 0.507278,-0.748064 0.446719,-1.480906 -0.04535,-0.54875 -0.194174,-0.928676 -0.330729,-0.844281 -0.136555,0.0844 -0.248281,-0.06895 -0.248281,-0.340765 0,-0.271817 -0.176332,-0.725328 -0.391847,-1.007803 -0.305192,-0.400012 -0.442008,-0.437681 -0.618668,-0.170337 -0.184758,0.279599 -0.281961,0.276812 -0.524165,-0.01503 -0.453788,-0.546781 0.880057,-1.207424 2.605737,-1.290599 1.606706,-0.07744 2.103943,-0.324198 2.103943,-1.044094 0,-0.267555 0.250787,-0.720107 0.557305,-1.005672 0.633462,-0.590159 0.472038,-1.088905 -0.352434,-1.088905 -0.945064,0 -0.348631,-0.267302 0.816928,-0.366121 0.908414,-0.07702 1.049119,-0.02985 0.801392,0.268643 -0.220449,0.265624 -0.221382,0.362062 -0.0035,0.362062 0.164333,0 0.29698,0.423469 0.29698,0.94809 0,0.569543 -0.115725,0.909515 -0.289839,0.851477 -0.381057,-0.127019 -2.619404,1.964325 -2.624629,2.452257 -0.0033,0.308162 -0.04557,0.312889 -0.227763,0.02547 -0.178294,-0.281266 -0.258219,-0.262989 -0.393682,0.09002 -0.09348,0.243615 -0.105187,0.547757 -0.02601,0.675872 0.07918,0.128115 -0.06555,0.623387 -0.32162,1.100603 -0.292528,0.545161 -0.435205,1.285626 -0.383857,1.992145 l 0.08172,1.124479 -1.14831,-0.04234 c -0.950014,-0.03503 -1.002293,-0.06059 -0.30274,-0.147987 z m 5.267673,-0.430396 c -0.286329,-1.067282 -0.180195,-1.412491 0.256562,-0.834482 0.395074,0.522846 0.482264,0.563514 1.34721,0.628385 0.59356,0.04452 0.33327,0.264309 -0.64541,0.54499 -0.701134,0.201083 -0.825275,0.157184 -0.958362,-0.338893 z m 6.727095,-0.05396 c 0.0071,-0.684243 0.04307,-0.720261 0.292001,-0.292001 0.203505,0.350113 0.201225,0.57125 -0.008,0.780521 -0.212945,0.212945 -0.289822,0.08069 -0.283955,-0.48852 z m 2.105008,-0.714375 c -0.002,-0.763985 -0.07887,-1.670226 -0.170863,-2.01387 -0.156275,-0.583805 -0.112632,-0.61281 0.665071,-0.441998 0.766271,0.168301 0.832322,0.1284 0.832322,-0.502799 0,-0.647988 -0.05625,-0.676613 -1.025103,-0.521687 -1.336999,0.213795 -1.572453,-0.175626 -1.815055,-3.001938 L 85.14686,69.585417 h 6.63907 c 4.286849,0 6.639071,0.09454 6.639071,0.266825 0,0.158163 0.215498,0.132245 0.529167,-0.06365 0.394621,-0.246445 0.529166,-0.617015 0.529166,-1.45745 v -1.12698 h 2.581596 2.58159 l -0.0947,1.190625 -0.0947,1.190625 h 7.0381 7.0381 v -1.058334 -1.058333 l -1.65364,-0.008 c -1.37803,-0.0067 -1.56602,-0.05885 -1.12789,-0.312838 0.35366,-0.205028 2.15069,-0.290717 5.4901,-0.261791 4.0939,0.03546 4.96435,-0.0218 4.96435,-0.326571 0,-0.203265 -0.10332,-0.409261 -0.22961,-0.457768 -0.12628,-0.04851 -0.3129,-0.356085 -0.4147,-0.683507 -0.15197,-0.48875 -0.0844,-0.595312 0.37751,-0.595312 0.30944,0 0.49875,0.103329 0.4207,0.229621 -0.0781,0.126292 0.0637,0.230124 0.31511,0.230737 0.71045,0.0017 1.64766,0.368306 1.64766,0.644449 0,0.137136 0.11906,0.175754 0.26458,0.08582 0.14552,-0.08994 0.26458,-0.03743 0.26458,0.116676 0,0.154109 0.23813,0.280199 0.52917,0.280199 0.29104,0 0.52917,0.103365 0.52917,0.2297 0,0.126335 0.9572,0.250134 2.12712,0.275109 1.16992,0.02497 2.44846,0.167578 2.8412,0.316897 l 0.71407,0.27149 -0.65838,0.505852 c -0.4424,0.339904 -0.52819,0.509111 -0.26151,0.515787 0.25138,0.0063 0.29281,0.08119 0.11299,0.20432 -0.35869,0.245613 -0.74232,1.149161 -0.67229,1.583449 0.0293,0.181901 -0.071,0.330729 -0.22285,0.330729 -0.50152,0 -0.3175,1.321257 0.18684,1.341513 0.39593,0.0159 0.38634,0.05154 -0.0661,0.245987 -0.50492,0.216971 -0.50189,0.228243 0.0661,0.245987 0.32742,0.01023 0.59531,-0.08015 0.59531,-0.200849 0,-0.356956 1.14688,-0.20962 1.65101,0.212101 0.25611,0.214241 0.46565,0.720257 0.46565,1.124479 0,0.476899 0.13935,0.734949 0.39688,0.734949 0.43041,0 0.52358,0.713416 0.16669,1.27632 -0.1803,0.284374 -0.30043,0.271929 -0.63851,-0.06615 -0.29268,-0.292676 -0.92306,-0.416424 -2.1213,-0.416424 h -1.70487 l -0.17236,-1.077865 -0.17236,-1.077865 -1.84349,0.129811 c -1.79894,0.126673 -1.85682,0.111084 -2.39523,-0.645038 -0.30346,-0.426167 -0.6521,-0.712823 -0.77476,-0.637014 -0.12266,0.07581 -0.43263,-0.07162 -0.68881,-0.327618 -0.3741,-0.373827 -0.92518,-0.465453 -2.79945,-0.465453 -1.74663,0 -2.33365,0.08712 -2.33366,0.346344 -1e-5,0.190489 -0.11808,0.273376 -0.26238,0.184193 -0.1443,-0.08918 -0.56102,0.136504 -0.92604,0.501525 -0.36502,0.365022 -0.66368,0.541522 -0.66368,0.392221 0,-0.149301 -0.17859,-0.09286 -0.39687,0.125419 -0.21829,0.218282 -0.39688,0.531469 -0.39688,0.695972 0,0.164504 -0.13782,0.213921 -0.30626,0.109817 -0.20823,-0.128694 -0.26022,-0.01321 -0.16241,0.360793 0.0791,0.30254 -0.0594,0.886705 -0.30772,1.298144 -0.32792,0.543251 -0.42426,1.164617 -0.35187,2.269426 l 0.0997,1.521354 H 102.40863 86.783334 Z M 118.26875,74.6125 c 0,-0.145521 -0.0525,-0.264583 -0.11668,-0.264583 -0.0642,0 -0.19026,0.119062 -0.28019,0.264583 -0.0899,0.145521 -0.0374,0.264583 0.11667,0.264583 0.15411,0 0.2802,-0.119062 0.2802,-0.264583 z m 15.875,-7.14375 c 0,-0.145521 -0.12609,-0.264583 -0.2802,-0.264583 -0.15411,0 -0.20661,0.119062 -0.11667,0.264583 0.0899,0.145521 0.21602,0.264583 0.28019,0.264583 0.0642,0 0.11668,-0.119062 0.11668,-0.264583 z m -11.51759,10.834629 c -0.25141,-0.406792 0.093,-0.669255 0.43255,-0.329666 0.19002,0.190019 0.19459,0.338012 0.0139,0.449698 -0.14815,0.09156 -0.34904,0.03754 -0.44643,-0.120032 z m -1.28883,-0.181331 c -0.28391,-0.283904 -0.16652,-0.599131 0.2231,-0.599131 0.20969,0 0.44713,0.106586 0.52765,0.236859 0.16833,0.272366 -0.51225,0.600776 -0.75075,0.362272 z m 10.68975,-0.06996 c 0,-0.145521 0.18563,-0.264583 0.41249,-0.264583 0.22687,0 0.33891,0.119062 0.24897,0.264583 -0.0899,0.145521 -0.27555,0.264584 -0.41249,0.264584 -0.13693,0 -0.24897,-0.119063 -0.24897,-0.264584 z M 70.776042,76.993749 c 0.08994,-0.145521 0.216026,-0.264583 0.280199,-0.264583 0.06417,0 0.116676,0.119062 0.116676,0.264583 0,0.145521 -0.126089,0.264583 -0.280198,0.264583 -0.154109,0 -0.206614,-0.119062 -0.116677,-0.264583 z m 3.592763,-0.15434 c 0.0127,-0.308225 0.07539,-0.37092 0.159853,-0.159853 0.07643,0.190996 0.06703,0.419199 -0.02089,0.507118 -0.08792,0.08792 -0.150453,-0.06835 -0.138965,-0.347265 z m 9.118536,0.172622 c -0.08372,-0.135465 -0.03122,-0.321086 0.116677,-0.41249 0.147895,-0.0914 0.268899,0.01943 0.268899,0.246301 0,0.464748 -0.158764,0.533178 -0.385576,0.166189 z m 40.469949,-0.01828 c 0.0899,-0.145521 0.21603,-0.264583 0.2802,-0.264583 0.0642,0 0.11668,0.119062 0.11668,0.264583 0,0.145521 -0.12609,0.264583 -0.2802,0.264583 -0.15411,0 -0.20661,-0.119062 -0.11668,-0.264583 z M 79.242709,76.729166 c -0.08994,-0.145521 -0.03743,-0.264584 0.116677,-0.264584 0.154109,0 0.280198,0.119063 0.280198,0.264584 0,0.14552 -0.0525,0.264583 -0.116677,0.264583 -0.06417,0 -0.190261,-0.119063 -0.280198,-0.264583 z m 43.259371,0.03123 c 0,-0.14552 0.11907,-0.338168 0.26459,-0.428104 0.14552,-0.08994 0.26458,-0.04446 0.26458,0.101061 0,0.145521 -0.11906,0.338168 -0.26458,0.428105 -0.14552,0.08994 -0.26459,0.04446 -0.26459,-0.101062 z M 84.61712,75.982362 c -0.06974,-0.475197 -0.02675,-0.92583 0.09553,-1.001407 0.357913,-0.221202 0.522587,0.537265 0.266784,1.228767 -0.22782,0.615855 -0.239645,0.608434 -0.362314,-0.22736 z m 45.61968,0.283783 c 0.0159,-0.254662 -0.059,-0.730912 -0.16657,-1.058334 -0.25652,-0.781236 -0.0987,-0.751323 0.91345,0.17313 0.90992,0.831083 0.85377,1.348225 -0.14639,1.348225 -0.43405,0 -0.62043,-0.143708 -0.60049,-0.463021 z m 5.75903,0.359036 c 0,-0.05719 0.18478,-0.17489 0.41062,-0.261552 0.23546,-0.09036 0.34166,-0.046 0.24897,0.103984 -0.15538,0.251408 -0.65959,0.371858 -0.65959,0.157568 z M 78.302625,75.909178 c -0.237688,-0.444125 -0.22879,-0.617434 0.04024,-0.783703 0.459746,-0.284139 0.767553,-0.06544 0.767553,0.545357 0,0.74812 -0.462012,0.884441 -0.807793,0.238346 z m 3.847833,0.286505 c -0.0914,-0.147895 -0.277024,-0.200399 -0.41249,-0.116677 -0.135465,0.08372 -0.246301,0.01125 -0.246301,-0.161048 0,-0.208103 0.270886,-0.259094 0.806903,-0.151891 0.500441,0.100088 0.745732,0.0624 0.645843,-0.09922 -0.08858,-0.143329 -0.02223,-0.260599 0.147447,-0.260599 0.172615,0 0.237765,0.184348 0.147907,0.418514 -0.08833,0.230184 -0.1606,0.468309 -0.1606,0.529167 0,0.230109 -0.769754,0.09895 -0.928709,-0.158246 z m 43.526622,-0.02399 c 0,-0.161089 -0.18477,-0.221985 -0.41061,-0.135322 -0.22584,0.08666 -0.34636,0.0536 -0.26782,-0.07348 0.0785,-0.127076 0.50778,-0.284617 0.95389,-0.350091 0.59723,-0.08765 0.87959,0.0089 1.07088,0.36637 0.22545,0.42127 0.15367,0.485413 -0.54328,0.485413 -0.44168,0 -0.80306,-0.131801 -0.80306,-0.292891 z M 71.551771,75.906257 c -0.09199,-0.148847 -0.0958,-0.342084 -0.0085,-0.429417 0.08733,-0.08733 0.167154,0.0099 0.177382,0.216041 0.01105,0.222807 0.0996,0.168056 0.218317,-0.134996 0.171308,-0.437294 0.222745,-0.449819 0.361572,-0.08804 0.182275,0.475001 -0.484702,0.863729 -0.748798,0.436414 z m 8.847796,-0.03699 c -0.01857,-0.03638 -0.0618,-0.332991 -0.09606,-0.659135 -0.08439,-0.803396 0.49128,-1.226261 1.369358,-1.005877 0.55921,0.140352 0.632837,0.232438 0.334165,0.417941 -0.233063,0.144753 -0.417613,0.137635 -0.47127,-0.01818 -0.04851,-0.140857 -0.210074,-0.256104 -0.359037,-0.256104 -0.148963,0 -0.20058,0.1831 -0.114704,0.40689 0.0887,0.231146 -0.0127,0.471679 -0.234756,0.556891 -0.214992,0.0825 -0.325021,0.256587 -0.244508,0.38686 0.08051,0.130272 0.07983,0.236859 -0.0015,0.236859 -0.08135,0 -0.163102,-0.02977 -0.181674,-0.06615 z m 41.381513,-0.463021 c 0.0219,-0.291042 0.12508,-0.529167 0.22924,-0.529167 0.10416,0 0.39959,-0.208359 0.6565,-0.463021 0.4452,-0.441294 0.45709,-0.43819 0.25346,0.06615 -0.11751,0.291042 -0.27356,0.737526 -0.34678,0.992188 -0.1839,0.63958 -0.84144,0.584692 -0.79242,-0.06615 z m -45.316496,-0.25628 c 0,-0.344114 0.129006,-0.471358 0.380169,-0.374978 0.209092,0.08024 0.315416,0.314625 0.236275,0.520863 -0.211795,0.55193 -0.616444,0.456168 -0.616444,-0.145885 z m 43.563826,0.132462 c -0.082,-0.213621 -0.0352,-0.458773 0.10398,-0.544782 0.13917,-0.08601 0.25303,0.08877 0.25303,0.388402 0,0.638853 -0.14714,0.703303 -0.35701,0.15638 z m 3.63599,-0.03011 c 0.0883,-0.230183 0.16066,-0.498074 0.16073,-0.595313 7e-5,-0.09724 0.47461,-0.192428 1.05454,-0.211532 0.57992,-0.0191 0.98955,0.07019 0.91029,0.198438 -0.0793,0.128244 -0.32418,0.233171 -0.54426,0.233171 -0.22009,0 -0.57876,0.178594 -0.79704,0.396875 -0.52116,0.521164 -0.98761,0.508294 -0.78426,-0.02164 z M 76.887463,74.389991 c -0.186439,-0.301665 1.290703,-1.36698 1.881512,-1.356946 0.424379,0.0072 0.418604,0.03954 -0.05543,0.310341 -0.291041,0.166263 -0.684746,0.51983 -0.874898,0.785705 -0.371694,0.519707 -0.730418,0.618102 -0.951181,0.2609 z m 6.378408,-0.577043 c -0.400168,-0.38583 -0.413599,-0.481213 -0.08549,-0.60712 0.467399,-0.179358 1.00186,0.382469 0.743547,0.781621 -0.121136,0.187184 -0.344312,0.128003 -0.658057,-0.174501 z m 37.232269,0.164626 c 0.27627,-0.160114 0.7249,-0.503269 0.99697,-0.762567 0.36759,-0.350334 0.61145,-0.40338 0.94926,-0.206483 0.40271,0.234728 0.38815,0.265885 -0.12758,0.273013 -0.32019,0.0044 -0.69392,0.207756 -0.83052,0.451847 -0.1366,0.244091 -0.52783,0.46439 -0.8694,0.489554 -0.5753,0.04238 -0.58404,0.02432 -0.11873,-0.245364 z m 6.09465,-0.29331 c -0.54118,-0.442273 -1.12235,-0.643177 -1.87959,-0.64975 -0.72361,-0.0063 -1.14793,-0.144402 -1.24846,-0.40639 -0.11702,-0.304956 0.0566,-0.396875 0.74983,-0.396875 0.49616,0 0.97249,0.113862 1.0585,0.253028 0.086,0.139165 0.31579,0.191854 0.51064,0.117086 0.19484,-0.07477 0.42831,0.05704 0.51882,0.292908 0.0929,0.242049 0.29844,0.346115 0.4719,0.238909 0.18491,-0.114283 0.23614,-0.07474 0.1286,0.09926 -0.0983,0.159062 0.0311,0.406653 0.28764,0.550203 0.25651,0.14355 0.40319,0.324193 0.32595,0.401428 -0.0772,0.07724 -0.49296,-0.147678 -0.92383,-0.499807 z M 80.652337,73.050762 c -0.825434,-0.08856 -1.59934,-0.264441 -1.719792,-0.390844 -0.123272,-0.129363 0.0557,-0.145237 0.409443,-0.03632 0.431264,0.132792 0.571643,0.101596 0.447406,-0.09942 -0.199254,-0.322401 1.141528,-0.400525 2.165294,-0.126166 0.524957,0.140683 0.902483,0.951784 0.396875,0.852671 -0.10914,-0.02139 -0.873792,-0.111359 -1.699226,-0.199921 z m -9.082545,-1.34868 c 0.08994,-0.145521 0.216026,-0.264583 0.280199,-0.264583 0.06417,0 0.116676,0.119062 0.116676,0.264583 0,0.145521 -0.126089,0.264584 -0.280198,0.264584 -0.154109,0 -0.206614,-0.119063 -0.116677,-0.264584 z m 12.567709,-0.01562 c 0,-0.154109 -0.09922,-0.218877 -0.220486,-0.14393 -0.121268,0.07495 -0.220486,-0.02574 -0.220486,-0.223743 0,-0.198006 0.149544,-0.302625 0.33232,-0.232487 0.41432,0.158989 0.713346,0.880359 0.364931,0.880359 -0.140953,0 -0.256279,-0.12609 -0.256279,-0.280199 z m -11.90625,-0.248968 c 0,-0.145521 0.119062,-0.264583 0.264583,-0.264583 0.145521,0 0.264583,0.119062 0.264583,0.264583 0,0.145521 -0.119062,0.264583 -0.264583,0.264583 -0.145521,0 -0.264583,-0.119062 -0.264583,-0.264583 z m 1.381356,-0.04303 c 0.116911,-0.350733 0.999894,-0.550706 0.999894,-0.226452 0,0.117076 -0.188332,0.285135 -0.418515,0.373464 -0.594601,0.22817 -0.697745,0.202088 -0.581379,-0.147012 z m 61.391043,-0.41926 c 0.10914,-0.06104 0.19843,-0.279648 0.19843,-0.485802 0,-0.206155 0.1786,-0.374827 0.39688,-0.374827 0.21828,0 0.39687,0.178594 0.39687,0.396875 0,0.218281 -0.10932,0.396875 -0.24294,0.396875 -0.13362,0 -0.40151,0.04002 -0.59531,0.08893 -0.1938,0.04891 -0.26307,0.03899 -0.15393,-0.02205 z M 79.771876,70.643749 c 0.08994,-0.145521 0.394619,-0.264583 0.677073,-0.264583 0.282453,0 0.513552,0.119062 0.513552,0.264583 0,0.145521 -0.304683,0.264583 -0.677074,0.264583 -0.384007,0 -0.606294,-0.114522 -0.513551,-0.264583 z m -4.365625,-0.633151 c 0,-0.05719 0.178593,-0.172517 0.396875,-0.256279 0.218281,-0.08376 0.396875,-0.03697 0.396875,0.103984 0,0.140954 -0.178594,0.256279 -0.396875,0.256279 -0.218282,0 -0.396875,-0.04679 -0.396875,-0.103984 z m 4.753193,-0.833271 c -0.473105,-0.570057 -0.08841,-0.827677 1.464515,-0.980751 0.727604,-0.07172 1.174089,-0.07631 0.992188,-0.01019 -0.181901,0.06611 -0.33073,0.407945 -0.33073,0.75962 0,0.54995 -0.12503,0.63941 -0.893644,0.63941 -0.491505,0 -1.046053,-0.18364 -1.232329,-0.408089 z m 55.836386,0.01121 c 0,-0.218282 0.11533,-0.396875 0.25628,-0.396875 0.14096,0 0.18775,0.178593 0.10399,0.396875 -0.0838,0.218281 -0.19909,0.396875 -0.25628,0.396875 -0.0572,0 -0.10399,-0.178594 -0.10399,-0.396875 z M 83.079167,68.363932 c 0,-0.29757 0.161142,-0.385594 0.529532,-0.289258 0.299268,0.07826 0.461791,0.02887 0.37375,-0.113584 -0.09094,-0.147151 0.321861,-0.233973 0.991823,-0.208604 2.233312,0.08457 4.719479,-0.08015 4.719479,-0.312678 0,-0.129603 0.126089,-0.235642 0.280198,-0.235642 0.154109,0 0.206614,0.119062 0.116677,0.264583 -0.08994,0.145521 -0.03743,0.264583 0.116677,0.264583 0.154109,0 0.280198,-0.119062 0.280198,-0.264583 0,-0.388122 0.790758,-0.323589 0.810521,0.06615 0.0092,0.181901 0.12445,0.06284 0.256057,-0.264584 0.280259,-0.697247 0.499536,-0.73511 1.197956,-0.206852 0.282475,0.213653 0.900544,0.392247 1.373487,0.396875 0.738589,0.0072 0.859896,0.101728 0.859896,0.669873 v 0.661459 h -5.953126 c -5.30616,0 -5.953125,-0.04649 -5.953125,-0.427734 z m 25.825183,0.0092 c -0.0883,-0.230183 -0.1606,-0.706433 -0.1606,-1.058333 0,-0.485927 -0.14319,-0.640794 -0.59531,-0.643871 -0.8451,-0.0058 -1.36129,-0.400288 -1.17134,-0.895287 0.34255,-0.892669 1.62477,-0.41953 1.90665,0.703552 0.10007,0.398724 0.27537,0.724954 0.38954,0.724954 0.31042,0 0.53353,0.738118 0.35989,1.190625 -0.19792,0.515787 -0.52634,0.506036 -0.72883,-0.02164 z m 4.07273,0.153931 c 0,-0.145521 -0.29765,-0.264583 -0.66145,-0.264583 -0.36381,0 -0.66146,-0.06804 -0.66146,-0.151191 0,-0.457402 0.88613,-0.907142 1.78736,-0.907142 0.99551,0 1.02735,0.02763 0.91491,0.79375 -0.0921,0.627667 -0.24862,0.79375 -0.74793,0.79375 -0.34728,0 -0.63143,-0.119063 -0.63143,-0.264584 z m -7.67291,-0.79375 c 0,-0.293981 0.17639,-0.529166 0.39687,-0.529166 0.22049,0 0.39688,0.235185 0.39688,0.529166 0,0.293982 -0.17639,0.529167 -0.39688,0.529167 -0.22048,0 -0.39687,-0.235185 -0.39687,-0.529167 z m 16.78119,-2.479726 c 0.0173,-0.776961 0.0882,-0.867272 0.54902,-0.699063 0.30842,0.112584 0.56409,0.484782 0.61288,0.892226 0.07,0.584156 -0.0203,0.699063 -0.54901,0.699063 -0.5461,0 -0.63002,-0.122173 -0.61289,-0.892226 z m -27.326628,0.127498 c -0.22073,-0.139862 -0.256881,-0.290558 -0.09387,-0.391304 0.145809,-0.09011 0.333377,0.01407 0.416819,0.23151 0.175321,0.456879 0.158808,0.465049 -0.322949,0.159794 z M 124.1476,64.72276 c 0.0431,-0.520857 0.12925,-0.581132 0.4998,-0.349717 0.50238,0.313743 0.3758,0.979039 -0.18628,0.979039 -0.22321,0 -0.34532,-0.245108 -0.31352,-0.629322 z m -28.897599,0.151934 c 0,-0.127282 0.305241,-0.3705 0.678314,-0.540483 0.387447,-0.176533 0.60804,-0.195354 0.514431,-0.04389 -0.239992,0.388314 -1.192745,0.855108 -1.192745,0.584375 z m 13.229169,-0.797979 c -0.53352,-0.241759 -0.69808,-1.683258 -0.16898,-1.480226 0.2083,0.07993 0.42997,0.494515 0.49261,0.921295 0.0626,0.426781 0.10474,0.767597 0.0936,0.757369 -0.0112,-0.01023 -0.19891,-0.09952 -0.41719,-0.198438 z m 14.15521,-0.04755 c 0.0899,-0.145521 0.0176,-0.264584 -0.16078,-0.264584 -0.17836,0 -0.26948,-0.05481 -0.2025,-0.121797 0.067,-0.06699 0.39456,-0.05047 0.72793,0.03671 0.45369,0.118644 0.51732,0.214794 0.25303,0.38233 -0.48311,0.306234 -0.81624,0.288621 -0.61768,-0.03266 z m -2.09019,-0.436702 c -0.74444,-0.40315 -1.18585,-0.539246 -2.01086,-0.619984 -0.27415,-0.02683 -0.23324,-0.105617 0.1323,-0.254787 0.29104,-0.11877 0.63297,-0.119706 0.75984,-0.0021 0.12687,0.117627 0.4143,0.143406 0.63872,0.05729 0.26789,-0.1028 0.34233,-0.05026 0.21672,0.152967 -0.12091,0.195637 -0.003,0.309547 0.32108,0.309547 0.28181,0 0.6606,0.178593 0.84176,0.396875 0.41933,0.505257 0.0792,0.490196 -0.89956,-0.03983 z m -19.47336,-1.150798 c 0,-0.331503 0.28079,-0.331503 0.79375,0 0.32093,0.2074 0.28296,0.257255 -0.19843,0.260531 -0.32743,0.0022 -0.59532,-0.115011 -0.59532,-0.260531 z m 16.10273,-0.02838 c -0.24477,-0.155085 -0.0848,-0.2294 0.49988,-0.232154 0.47294,-0.0022 0.85989,0.04159 0.85989,0.09738 0,0.240584 -1.03142,0.342812 -1.35977,0.134774 z m -13.36009,-0.421207 c 0.0846,-0.08456 0.71819,-0.20225 1.40807,-0.261538 0.68988,-0.05929 1.19264,-0.04611 1.11725,0.02928 -0.0754,0.07539 -0.70902,0.193083 -1.40806,0.261538 -0.69905,0.06846 -1.20181,0.05528 -1.11726,-0.02928 z m 8.17646,-0.262936 c 0.25743,-0.06708 0.61462,-0.06267 0.79375,0.0098 0.17913,0.07248 -0.0315,0.127362 -0.46805,0.12197 -0.43657,-0.0054 -0.58313,-0.06469 -0.3257,-0.131774 z m 3.05421,0.0026 c 0.191,-0.07643 0.4192,-0.06703 0.50712,0.02089 0.0879,0.08792 -0.0683,0.150452 -0.34727,0.138964 -0.30822,-0.0127 -0.37091,-0.07539 -0.15985,-0.159853 z"
         id="path1" /></g></g></svg>
